<?xml version="1.0" encoding="utf-8"?>
<!-- Generator: Adobe Illustrator 17.0.0, SVG Export Plug-In . SVG Version: 6.00 Build 0)  -->
<!DOCTYPE svg PUBLIC "-//W3C//DTD SVG 1.1//EN" "http://www.w3.org/Graphics/SVG/1.1/DTD/svg11.dtd">
<svg version="1.1" id="图层_1" xmlns="http://www.w3.org/2000/svg" xmlns:xlink="http://www.w3.org/1999/xlink" x="0px" y="0px"
	 width="195.199px" height="195.199px" viewBox="0 0 195.199 195.199" enable-background="new 0 0 195.199 195.199"
	 xml:space="preserve">
<g>
	<g>
		<g>
			<g>
				<path d="M97.599,195.199C43.783,195.199,0,151.416,0,97.599S43.783,0,97.599,0s97.599,43.783,97.599,97.599
					S151.416,195.199,97.599,195.199z M97.599,3.82c-51.71,0-93.78,42.07-93.78,93.78s42.07,93.78,93.78,93.78
					s93.78-42.07,93.78-93.78S149.309,3.82,97.599,3.82z"/>
			</g>
		</g>
	</g>
	<g>
		<path d="M133.215,170.043H61.983c-10.386,0-18.835-8.45-18.835-18.836V45.389c0-10.386,8.45-18.835,18.835-18.835h71.232
			c10.386,0,18.836,8.45,18.836,18.835v105.818C152.051,161.593,143.601,170.043,133.215,170.043z M61.983,28.554
			c-9.283,0-16.835,7.552-16.835,16.835v105.818c0,9.283,7.552,16.836,16.835,16.836h71.232c9.283,0,16.836-7.553,16.836-16.836
			V45.389c0-9.283-7.553-16.835-16.836-16.835H61.983z"/>
		<g>
			<path d="M133.142,43.62H62.056c-3.234,0-5.856,2.622-5.856,5.856v12.751c0,3.234,2.622,5.856,5.856,5.856h71.086
				c3.234,0,5.856-2.622,5.856-5.856V49.476C138.998,46.242,136.377,43.62,133.142,43.62z"/>
			<path d="M133.142,69.083H62.056c-3.78,0-6.856-3.076-6.856-6.856V49.476c0-3.78,3.076-6.855,6.856-6.855h71.086
				c3.78,0,6.856,3.075,6.856,6.855v12.751C139.999,66.007,136.923,69.083,133.142,69.083z M62.056,44.62
				c-2.678,0-4.856,2.178-4.856,4.855v12.751c0,2.678,2.178,4.856,4.856,4.856h71.086c2.678,0,4.856-2.178,4.856-4.856V49.476
				c0-2.677-2.179-4.855-4.856-4.855H62.056z"/>
		</g>
		<g>
			<path d="M130.233,88.294h-16.008c-2.206,0-4.001-1.795-4.001-4.001v-4.479c0-2.206,1.795-4.001,4.001-4.001h16.008
				c2.206,0,4.001,1.795,4.001,4.001v4.479C134.234,86.499,132.439,88.294,130.233,88.294z M114.225,77.813
				c-1.104,0-2.001,0.897-2.001,2.001v4.479c0,1.104,0.897,2.001,2.001,2.001h16.008c1.104,0,2.001-0.897,2.001-2.001v-4.479
				c0-1.104-0.897-2.001-2.001-2.001H114.225z"/>
		</g>
		<g>
			<g>
				<g>
					<path d="M132.334,113.552h-16.008c-2.206,0-4.001-1.795-4.001-4.001v-4.479c0-2.206,1.795-4.001,4.001-4.001h16.008
						c2.206,0,4.001,1.795,4.001,4.001v4.479C136.335,111.757,134.54,113.552,132.334,113.552z M116.326,103.072
						c-1.104,0-2.001,0.897-2.001,2.001v4.479c0,1.104,0.897,2.001,2.001,2.001h16.008c1.104,0,2.001-0.897,2.001-2.001v-4.479
						c0-1.104-0.897-2.001-2.001-2.001H116.326z"/>
				</g>
				<path d="M132.334,131.93h-16.008c-2.206,0-4.001-1.795-4.001-4.001v-4.479c0-2.206,1.795-4.001,4.001-4.001h16.008
					c2.206,0,4.001,1.795,4.001,4.001v4.479C136.335,130.135,134.54,131.93,132.334,131.93z M116.326,121.449
					c-1.104,0-2.001,0.897-2.001,2.001v4.479c0,1.104,0.897,2.001,2.001,2.001h16.008c1.104,0,2.001-0.897,2.001-2.001v-4.479
					c0-1.104-0.897-2.001-2.001-2.001H116.326z"/>
				<path d="M132.334,150.307h-16.008c-2.206,0-4.001-1.795-4.001-4.001v-4.479c0-2.206,1.795-4.001,4.001-4.001h16.008
					c2.206,0,4.001,1.795,4.001,4.001v4.479C136.335,148.512,134.54,150.307,132.334,150.307z M116.326,139.827
					c-1.104,0-2.001,0.897-2.001,2.001v4.479c0,1.104,0.897,2.001,2.001,2.001h16.008c1.104,0,2.001-0.897,2.001-2.001v-4.479
					c0-1.104-0.897-2.001-2.001-2.001H116.326z"/>
			</g>
			<g>
				<path d="M105.89,113.552H89.883c-2.206,0-4.001-1.795-4.001-4.001v-4.479c0-2.206,1.795-4.001,4.001-4.001h16.007
					c2.206,0,4.001,1.795,4.001,4.001v4.479C109.891,111.757,108.096,113.552,105.89,113.552z M89.883,103.072
					c-1.104,0-2.001,0.897-2.001,2.001v4.479c0,1.104,0.897,2.001,2.001,2.001h16.007c1.104,0,2.001-0.897,2.001-2.001v-4.479
					c0-1.104-0.897-2.001-2.001-2.001H89.883z"/>
				<path d="M105.89,131.93H89.883c-2.206,0-4.001-1.795-4.001-4.001v-4.479c0-2.206,1.795-4.001,4.001-4.001h16.007
					c2.206,0,4.001,1.795,4.001,4.001v4.479C109.891,130.135,108.096,131.93,105.89,131.93z M89.883,121.449
					c-1.104,0-2.001,0.897-2.001,2.001v4.479c0,1.104,0.897,2.001,2.001,2.001h16.007c1.104,0,2.001-0.897,2.001-2.001v-4.479
					c0-1.104-0.897-2.001-2.001-2.001H89.883z"/>
				<path d="M105.89,150.307H89.883c-2.206,0-4.001-1.795-4.001-4.001v-4.479c0-2.206,1.795-4.001,4.001-4.001h16.007
					c2.206,0,4.001,1.795,4.001,4.001v4.479C109.891,148.512,108.096,150.307,105.89,150.307z M89.883,139.827
					c-1.104,0-2.001,0.897-2.001,2.001v4.479c0,1.104,0.897,2.001,2.001,2.001h16.007c1.104,0,2.001-0.897,2.001-2.001v-4.479
					c0-1.104-0.897-2.001-2.001-2.001H89.883z"/>
			</g>
			<g>
				<path d="M79.447,113.552H63.44c-2.206,0-4.001-1.795-4.001-4.001v-4.479c0-2.206,1.795-4.001,4.001-4.001h16.008
					c2.206,0,4.001,1.795,4.001,4.001v4.479C83.448,111.757,81.653,113.552,79.447,113.552z M63.44,103.072
					c-1.104,0-2.001,0.897-2.001,2.001v4.479c0,1.104,0.897,2.001,2.001,2.001h16.008c1.104,0,2.001-0.897,2.001-2.001v-4.479
					c0-1.104-0.897-2.001-2.001-2.001H63.44z"/>
				<path d="M79.447,131.93H63.44c-2.206,0-4.001-1.795-4.001-4.001v-4.479c0-2.206,1.795-4.001,4.001-4.001h16.008
					c2.206,0,4.001,1.795,4.001,4.001v4.479C83.448,130.135,81.653,131.93,79.447,131.93z M63.44,121.449
					c-1.104,0-2.001,0.897-2.001,2.001v4.479c0,1.104,0.897,2.001,2.001,2.001h16.008c1.104,0,2.001-0.897,2.001-2.001v-4.479
					c0-1.104-0.897-2.001-2.001-2.001H63.44z"/>
				<path d="M79.447,150.307H63.44c-2.206,0-4.001-1.795-4.001-4.001v-4.479c0-2.206,1.795-4.001,4.001-4.001h16.008
					c2.206,0,4.001,1.795,4.001,4.001v4.479C83.448,148.512,81.653,150.307,79.447,150.307z M63.44,139.827
					c-1.104,0-2.001,0.897-2.001,2.001v4.479c0,1.104,0.897,2.001,2.001,2.001h16.008c1.104,0,2.001-0.897,2.001-2.001v-4.479
					c0-1.104-0.897-2.001-2.001-2.001H63.44z"/>
			</g>
		</g>
	</g>
</g>
</svg>
