<?xml version="1.0" encoding="utf-8"?>
<!-- Generator: Adobe Illustrator 17.0.0, SVG Export Plug-In . SVG Version: 6.00 Build 0)  -->
<!DOCTYPE svg PUBLIC "-//W3C//DTD SVG 1.1//EN" "http://www.w3.org/Graphics/SVG/1.1/DTD/svg11.dtd">
<svg version="1.1" id="图层_1" xmlns="http://www.w3.org/2000/svg" xmlns:xlink="http://www.w3.org/1999/xlink" x="0px" y="0px"
	 width="195.199px" height="195.199px" viewBox="0 0 195.199 195.199" enable-background="new 0 0 195.199 195.199"
	 xml:space="preserve">
<g>
	<g>
		<g>
			<g>
				<path d="M97.599,195.199C43.783,195.199,0,151.416,0,97.599S43.783,0,97.599,0s97.599,43.783,97.599,97.599
					S151.416,195.199,97.599,195.199z M97.599,3.82c-51.71,0-93.78,42.07-93.78,93.78s42.07,93.78,93.78,93.78
					s93.78-42.07,93.78-93.78S149.309,3.82,97.599,3.82z"/>
			</g>
		</g>
	</g>
	<g>
		<path d="M157.468,154.974H37.731c-1.055,0-1.91-0.855-1.91-1.91V37.754c0-1.055,0.855-1.91,1.91-1.91h0
			c1.055,0,1.91,0.855,1.91,1.91v111.49c0,1.055,0.855,1.91,1.91,1.91h115.917c1.055,0,1.91,0.855,1.91,1.91v0
			C159.377,154.118,158.522,154.974,157.468,154.974z"/>
	</g>
	<path stroke="#FFFFFF" stroke-miterlimit="10" d="M145.121,94.982v16.443l-41.015-34.333c-0.516-0.432-1.264-0.446-1.796-0.035
		L77.79,96.028c-0.538,0.417-1.296,0.397-1.812-0.048L49.581,73.228c-0.599-0.516-1.504-0.449-2.02,0.15l0,0
		c-0.517,0.599-0.449,1.504,0.15,2.02l28.171,24.279c0.516,0.444,1.273,0.464,1.812,0.048l24.546-18.991
		c0.532-0.412,1.28-0.398,1.796,0.035l39.201,32.815h-13.971c-0.791,0-1.432,0.641-1.432,1.432v0c0,0.791,0.641,1.432,1.432,1.432
		h17.288c0.791,0,1.432-0.641,1.432-1.432V94.982c0-0.791-0.641-1.432-1.432-1.432l0,0
		C145.762,93.549,145.121,94.191,145.121,94.982z"/>
</g>
</svg>
