<?xml version="1.0" encoding="utf-8"?>
<!-- Generator: Adobe Illustrator 17.0.0, SVG Export Plug-In . SVG Version: 6.00 Build 0)  -->
<!DOCTYPE svg PUBLIC "-//W3C//DTD SVG 1.1//EN" "http://www.w3.org/Graphics/SVG/1.1/DTD/svg11.dtd">
<svg version="1.1" id="图层_1" xmlns="http://www.w3.org/2000/svg" xmlns:xlink="http://www.w3.org/1999/xlink" x="0px" y="0px"
	 width="195.199px" height="195.199px" viewBox="0 0 195.199 195.199" enable-background="new 0 0 195.199 195.199"
	 xml:space="preserve">
<g>
	<g>
		<g>
			<g>
				<path d="M97.599,195.199C43.783,195.199,0,151.416,0,97.599S43.783,0,97.599,0s97.599,43.783,97.599,97.599
					S151.416,195.199,97.599,195.199z M97.599,3.82c-51.71,0-93.78,42.07-93.78,93.78s42.07,93.78,93.78,93.78
					s93.78-42.07,93.78-93.78S149.309,3.82,97.599,3.82z"/>
			</g>
		</g>
	</g>
	<g>
		<path d="M124.74,166.502c-19.03,0-34.512-15.481-34.512-34.512s15.482-34.513,34.512-34.513s34.512,15.482,34.512,34.513
			S143.77,166.502,124.74,166.502z M124.74,100.478c-17.376,0-31.512,14.137-31.512,31.513s14.136,31.512,31.512,31.512
			s31.512-14.136,31.512-31.512S142.116,100.478,124.74,100.478z"/>
		<path d="M85.771,165.752c-16.792,0-32.003-4.279-45.211-12.72c-2.708-1.73-4.364-4.671-4.432-7.863l-0.178-8.239
			c-0.045-2.124,0.599-4.202,1.814-5.852c8.195-11.122,29.071-16.932,33.686-18.104c0.155-0.568,0.286-1.032,0.396-1.419
			c0.471-1.669,0.471-1.669,0.336-3.197c-0.024-0.278-0.053-0.599-0.083-0.976C51.575,94.13,50.399,73.444,51.317,58.975
			c1.113-17.528,16.27-31.129,34.104-30.235c0.565-0.028,1.123-0.042,1.678-0.042c17.107,0,31.353,13.3,32.43,30.278
			c1.03,16.233-2.067,28.729-9.468,38.202l-0.241,0.31l-0.362,0.151c-13.903,5.806-22.887,19.291-22.887,34.352
			c0,11.823,5.432,22.68,14.903,29.786l2.773,2.081l-3.416,0.597C95.896,165.316,90.829,165.752,85.771,165.752z M83.747,31.697
			c-15.529,0-28.458,12.065-29.436,27.468c-1.397,22.015,4.965,36.658,20.021,46.083l0.645,0.403l0.056,0.759
			c0.052,0.705,0.1,1.248,0.138,1.685c0.174,1.979,0.154,2.18-0.438,4.276c-0.157,0.555-0.359,1.27-0.615,2.234l-0.231,0.872
			l-0.878,0.204c-0.244,0.057-24.444,5.797-32.829,17.176c-0.824,1.119-1.261,2.542-1.23,4.008l0.178,8.239
			c0.047,2.19,1.187,4.21,3.049,5.4c12.718,8.126,27.386,12.247,43.596,12.247c3.765,0,7.534-0.251,11.246-0.746
			c-8.586-7.629-13.447-18.391-13.447-30.017c0-16.143,9.548-30.607,24.362-36.964c6.851-8.945,9.585-20.355,8.602-35.861
			c-1.009-15.903-14.778-28.261-30.957-27.429l-0.229,0.004C84.76,31.709,84.251,31.697,83.747,31.697z"/>
		<rect x="97.754" y="128.195" stroke="#FFFFFF" stroke-width="2" stroke-miterlimit="10" width="51.854" height="8.061"/>
	</g>
</g>
</svg>
