<?xml version="1.0" encoding="utf-8"?>
<!-- Generator: Adobe Illustrator 17.0.0, SVG Export Plug-In . SVG Version: 6.00 Build 0)  -->
<!DOCTYPE svg PUBLIC "-//W3C//DTD SVG 1.1//EN" "http://www.w3.org/Graphics/SVG/1.1/DTD/svg11.dtd">
<svg version="1.1" id="图层_1" xmlns="http://www.w3.org/2000/svg" xmlns:xlink="http://www.w3.org/1999/xlink" x="0px" y="0px"
	 width="195.199px" height="195.199px" viewBox="0 0 195.199 195.199" enable-background="new 0 0 195.199 195.199"
	 xml:space="preserve">
<g>
	<g>
		<g>
			<g>
				<path d="M97.599,195.199C43.783,195.199,0,151.416,0,97.599S43.783,0,97.599,0s97.599,43.783,97.599,97.599
					S151.416,195.199,97.599,195.199z M97.599,3.82c-51.71,0-93.78,42.07-93.78,93.78s42.07,93.78,93.78,93.78
					s93.78-42.07,93.78-93.78S149.309,3.82,97.599,3.82z"/>
			</g>
		</g>
	</g>
	<g>
		<path d="M89.076,104.992H29.894V58.496h59.182V104.992z M32.894,101.992h53.182V61.496H32.894V101.992z"/>
		<path d="M88.576,162.485H40.362v-59.54h48.214V162.485z M42.362,160.485h44.214v-55.54H42.362V160.485z"/>
	</g>
	<g>
		<path d="M166.356,104.992h-59.182V58.496h59.182V104.992z M110.175,101.992h53.182V61.496h-53.182V101.992z"/>
		<path d="M155.888,162.485h-48.214v-59.54h48.214V162.485z M109.675,160.485h44.214v-55.54h-44.214V160.485z"/>
	</g>
	<path d="M109.917,162.515H86.343V58.496h23.573V162.515z M89.343,159.515h17.573V61.496H89.343V159.515z"/>
	<g>
		<path d="M131.095,61.578l-36.204-0.086l21.423-29.185l0.321-0.162c2.316-1.17,4.799-1.763,7.378-1.763
			c6.229,0,11.842,3.452,14.647,9.009c4.075,8.07,0.825,17.95-7.245,22.025L131.095,61.578z M100.804,58.505l29.57,0.071
			c6.364-3.423,8.885-11.345,5.608-17.833c-2.293-4.541-6.879-7.361-11.97-7.361c-1.988,0-3.908,0.433-5.711,1.287L100.804,58.505z"
			/>
		<path d="M65.848,61.578l-0.321-0.162c-3.909-1.974-6.816-5.352-8.185-9.512c-1.369-4.16-1.035-8.604,0.939-12.513
			c2.806-5.557,8.418-9.009,14.647-9.009c2.579,0,5.062,0.593,7.378,1.763l0.32,0.162l21.425,29.185L65.848,61.578z M72.929,33.382
			c-5.09,0-9.677,2.821-11.97,7.361c-1.613,3.194-1.885,6.825-0.767,10.223c1.082,3.288,3.339,5.978,6.376,7.61l29.57-0.071
			L78.64,34.669C76.837,33.814,74.918,33.382,72.929,33.382z"/>
	</g>
</g>
</svg>
