<?xml version="1.0" encoding="utf-8"?>
<!-- Generator: Adobe Illustrator 17.0.0, SVG Export Plug-In . SVG Version: 6.00 Build 0)  -->
<!DOCTYPE svg PUBLIC "-//W3C//DTD SVG 1.1//EN" "http://www.w3.org/Graphics/SVG/1.1/DTD/svg11.dtd">
<svg version="1.1" id="图层_1" xmlns="http://www.w3.org/2000/svg" xmlns:xlink="http://www.w3.org/1999/xlink" x="0px" y="0px"
	 width="195.199px" height="195.199px" viewBox="0 0 195.199 195.199" enable-background="new 0 0 195.199 195.199"
	 xml:space="preserve">
<g>
	<g>
		<g>
			<g>
				<path d="M97.306,164.061c-14.195,0-28.343-10.309-39.839-29.03c-9.786-15.937-16.11-36.153-16.11-51.503
					c0-28.901,22.484-48.319,55.948-48.319s55.948,19.418,55.948,48.319c0,15.35-6.323,35.565-16.11,51.503
					C125.649,153.751,111.5,164.061,97.306,164.061z M97.306,39.029c-25.947,0-52.129,13.76-52.129,44.499
					c0,14.694,6.102,34.126,15.545,49.504c14.538,23.674,29.161,27.209,36.584,27.209c28.272,0,52.129-47.119,52.129-76.713
					C149.434,52.789,123.253,39.029,97.306,39.029z"/>
			</g>
		</g>
		<g>
			<g>
				<g>
					<path d="M86.247,97.059c-13.153,14.011-23.447,0-23.447,0v-0.636c0,0,10.294-14.011,23.447,0V97.059z"/>
				</g>
				<g>
					<path d="M74.327,103.71c-0.243,0-0.486-0.007-0.73-0.022c-6.675-0.401-10.96-6.135-11.14-6.378l-0.082-0.112v-0.913
						l0.082-0.112c0.18-0.244,4.464-5.977,11.14-6.378c4.402-0.27,8.761,1.868,12.959,6.339l0.115,0.122v0.971l-0.115,0.122
						C82.591,101.573,78.48,103.71,74.327,103.71z M63.223,96.914c0.617,0.781,4.639,5.583,10.432,5.928
						c4.097,0.248,8.189-1.758,12.168-5.952v-0.299c-3.978-4.194-8.063-6.203-12.168-5.952c-5.793,0.345-9.815,5.147-10.432,5.928
						V96.914z"/>
				</g>
			</g>
			<g>
				<g>
					<path d="M131.811,97.059c-13.153,14.011-23.447,0-23.447,0v-0.636c0,0,10.294-14.011,23.447,0V97.059z"/>
				</g>
				<g>
					<path d="M119.892,103.71c-0.243,0-0.486-0.007-0.73-0.022c-6.675-0.401-10.96-6.135-11.14-6.378l-0.082-0.112v-0.913
						l0.082-0.112c0.18-0.244,4.464-5.977,11.14-6.378c4.4-0.27,8.761,1.868,12.959,6.339l0.115,0.122v0.971l-0.115,0.122
						C128.155,101.573,124.045,103.71,119.892,103.71z M108.788,96.914c0.617,0.781,4.639,5.583,10.432,5.928
						c4.099,0.248,8.189-1.758,12.168-5.952v-0.299c-3.978-4.194-8.065-6.203-12.168-5.952c-5.793,0.345-9.815,5.147-10.432,5.928
						V96.914z"/>
				</g>
			</g>
		</g>
		<g>
			<g>
				<path d="M164.224,88.013c-7.729,0-13.51-5.519-13.769-5.77l-0.449-0.436l-0.333-1.982l0.282-0.559
					c0.174-0.346,4.367-8.494,12.765-10.432c5.541-1.28,11.479,0.449,17.642,5.136l0.601,0.457l0.377,2.238l-0.419,0.629
					c-4.29,6.447-9.333,10.022-14.99,10.627C165.353,87.984,164.783,88.013,164.224,88.013z M153.861,80.139
					c1.746,1.399,6.358,4.566,11.691,3.982c4.164-0.456,8.012-3.104,11.451-7.877c-4.812-3.384-9.315-4.628-13.398-3.696
					C158.376,73.743,155.055,78.244,153.861,80.139z"/>
			</g>
		</g>
		<g>
			<g>
				<path d="M168.631,100.553c-11.352,0-18.236-9.456-18.331-9.59l-0.513-0.724l2.867-11.078l2.143,3.829
					c0.848,0.24,3.233,0.252,4.853,0.261c3.785,0.02,7.7,0.041,10.009,1.455c6.097,3.735,13.631,7.181,13.706,7.216l3.04,1.386
					l-2.736,1.916C178.079,99.138,173.02,100.553,168.631,100.553z M153.943,89.426c2.235,2.687,11.238,11.87,24.668,4.464
					c-2.833-1.387-7.112-3.577-10.947-5.926c-1.4-0.858-5.234-0.878-8.034-0.893c-2.012-0.011-3.696-0.02-5.016-0.233
					L153.943,89.426z"/>
			</g>
		</g>
		<g>
			<g>
				<path d="M117.725,125.023c-1.641,0-3.206-0.214-4.692-0.643c-5.127-1.481-7.515-5.077-7.996-5.886
					c-4.377-5.772-6.867-7.467-7.731-7.926c-0.864,0.46-3.354,2.154-7.731,7.926c-0.482,0.808-2.869,4.405-7.996,5.886
					c-5.492,1.585-12.069,0.236-19.547-4.013l-0.129-0.08c-0.504-0.342-12.413-8.552-18.915-24.156l3.526-1.469
					c5.829,13.989,16.61,21.812,17.481,22.427c6.516,3.688,12.074,4.906,16.525,3.622c4.075-1.177,5.763-4.148,5.778-4.177
					l0.16-0.25c6.397-8.461,9.615-9.57,10.701-9.653l0.146-0.011l0.146,0.011c1.086,0.083,4.304,1.192,10.701,9.653l0.16,0.25
					c0.062,0.111,1.736,3.046,5.869,4.203c4.436,1.241,9.964,0.014,16.435-3.648c0.86-0.607,11.648-8.431,17.48-22.427l3.526,1.469
					c-6.502,15.604-18.412,23.815-18.915,24.156l-0.129,0.08C127.125,123.467,122.15,125.023,117.725,125.023z M97.064,110.45
					l-0.132,0.016l0.151-0.008C97.076,110.456,97.07,110.453,97.064,110.45z"/>
			</g>
		</g>
		<g>
			<g>
				<path d="M97.306,84.167c-6.959,0-9.588-1.149-10.217-1.493c-19.693-9.836-25.944-4.781-26.004-4.729l-0.276,0.209
					c-3.811,2.382-7.43,2.41-7.582,2.41c-5.403-0.114-7.582,0.311-8.399,0.572l-1.161-3.639c1.854-0.591,5.086-0.846,9.599-0.752
					c-0.023-0.001,2.595-0.051,5.389-1.75c1.439-1.209,9.208-6.204,30.18,4.282l0.128,0.071c0,0,0,0,0,0c0.008,0,2.092,1,8.342,1
					c6.317,0,8.378-1.021,8.398-1.031c21.041-10.523,28.813-5.529,30.252-4.32c2.798,1.701,5.403,1.749,5.429,1.749
					c8.517-0.178,10.603,0.901,11.465,1.858c0.459,0.51,0.678,1.156,0.601,1.773l-3.79-0.475c-0.094,0.753,0.287,1.256,0.487,1.382
					c-0.056-0.035-1.463-0.868-8.724-0.718c-0.001,0-0.002,0-0.004,0c-0.229,0-3.828-0.041-7.617-2.409l-0.316-0.247
					c-0.021-0.014-6.272-5.068-25.964,4.767C106.894,83.018,104.265,84.167,97.306,84.167z"/>
			</g>
		</g>
		<g>
			<g>
				<path d="M95.572,61.163c-25.075,0-40.91-5.399-41.893-5.743l1.262-3.605c0.354,0.124,36.006,12.23,84.895-0.05l0.931,3.705
					C123.775,59.737,108.452,61.163,95.572,61.163z"/>
			</g>
		</g>
	</g>
	<g>
		<g>
			<path d="M97.599,195.199C43.782,195.199,0,151.416,0,97.599S43.782,0,97.599,0s97.6,43.783,97.6,97.6
				S151.416,195.199,97.599,195.199z M97.599,3.819c-51.711,0-93.78,42.07-93.78,93.78s42.069,93.78,93.78,93.78
				s93.78-42.069,93.78-93.78S149.309,3.819,97.599,3.819z"/>
		</g>
	</g>
</g>
</svg>
