<?xml version="1.0" encoding="utf-8"?>
<!-- Generator: Adobe Illustrator 17.0.0, SVG Export Plug-In . SVG Version: 6.00 Build 0)  -->
<!DOCTYPE svg PUBLIC "-//W3C//DTD SVG 1.1//EN" "http://www.w3.org/Graphics/SVG/1.1/DTD/svg11.dtd">
<svg version="1.1" id="图层_1" xmlns="http://www.w3.org/2000/svg" xmlns:xlink="http://www.w3.org/1999/xlink" x="0px" y="0px"
	 width="195.199px" height="195.199px" viewBox="0 0 195.199 195.199" enable-background="new 0 0 195.199 195.199"
	 xml:space="preserve">
<g>
	<g>
		<g>
			<path d="M95.251,28.991c3.11,0,5.63,2.521,5.63,5.63v65.618v0h3.284v0V42.832c0-3.109,2.521-5.63,5.63-5.63s5.63,2.521,5.63,5.63
				v57.407v0h3.167v0V74.504c0-4.373,3.545-7.917,7.917-7.917c4.373,0,7.918,3.545,7.918,7.917v25.735v0v24.211
				c0,20.406-16.542,36.948-36.948,36.948c-20.406,0-36.948-16.542-36.948-36.948v-24.211v0V60.428c0-3.109,2.521-5.63,5.63-5.63
				s5.63,2.521,5.63,5.63v39.811v0h3.284v0V44.005c0-3.109,2.521-5.63,5.63-5.63s5.63,2.521,5.63,5.63v56.234v0h3.284v0V34.621
				C89.62,31.511,92.141,28.991,95.251,28.991 M95.251,25.171c-5.211,0-9.45,4.239-9.45,9.45v1.429
				c-1.471-0.945-3.22-1.494-5.095-1.494c-5.211,0-9.45,4.239-9.45,9.45v8.467c-1.471-0.945-3.22-1.494-5.095-1.494
				c-5.211,0-9.45,4.239-9.45,9.45v39.811v24.211c0,22.479,18.288,40.768,40.768,40.768s40.768-18.288,40.768-40.768v-24.211V74.504
				c0-6.472-5.265-11.737-11.737-11.737c-2.741,0-5.265,0.944-7.265,2.525v-22.46c0-5.211-4.239-9.45-9.45-9.45
				c-1.875,0-3.624,0.549-5.095,1.494v-0.256C104.7,29.41,100.461,25.171,95.251,25.171L95.251,25.171z"/>
		</g>
	</g>
	<g>
		<g>
			<path d="M97.6,195.199c-53.817,0-97.6-43.783-97.6-97.6S43.783,0,97.6,0s97.599,43.783,97.599,97.599
				S151.416,195.199,97.6,195.199z M97.6,3.819c-51.711,0-93.78,42.069-93.78,93.78s42.07,93.78,93.78,93.78
				s93.78-42.07,93.78-93.78S149.31,3.819,97.6,3.819z"/>
		</g>
	</g>
</g>
</svg>
