<?xml version="1.0" encoding="utf-8"?>
<!-- Generator: Adobe Illustrator 17.0.0, SVG Export Plug-In . SVG Version: 6.00 Build 0)  -->
<!DOCTYPE svg PUBLIC "-//W3C//DTD SVG 1.1//EN" "http://www.w3.org/Graphics/SVG/1.1/DTD/svg11.dtd">
<svg version="1.1" id="图层_1" xmlns="http://www.w3.org/2000/svg" xmlns:xlink="http://www.w3.org/1999/xlink" x="0px" y="0px"
	 width="195.199px" height="195.199px" viewBox="0 0 195.199 195.199" enable-background="new 0 0 195.199 195.199"
	 xml:space="preserve">
<g>
	<g>
		<g>
			<path d="M97.599,195.199C43.782,195.199,0,151.416,0,97.6S43.782,0,97.599,0s97.6,43.783,97.6,97.6
				S151.416,195.199,97.599,195.199z M97.599,3.819c-51.711,0-93.78,42.07-93.78,93.78s42.069,93.78,93.78,93.78
				s93.78-42.069,93.78-93.78S149.31,3.819,97.599,3.819z"/>
		</g>
	</g>
	<g>
		<g>
			<path d="M69.788,59.164c0-2.803-2.273-5.076-5.076-5.076c-0.296,0-0.584,0.031-0.866,0.079C63.599,50.6,60.629,47.783,57,47.783
				c-1.1,0-2.139,0.26-3.061,0.721c-1.182-2.338-3.605-3.941-6.403-3.941c-3.962,0-7.173,3.211-7.173,7.173
				c0,0.875,0.157,1.712,0.444,2.487c-0.146-0.014-0.294-0.022-0.444-0.022c-2.6,0-4.708,2.108-4.708,4.708
				c0,2.326,1.688,4.253,3.905,4.635c0.536,2.01,2.365,3.494,4.544,3.494c1.048,0,2.013-0.347,2.796-0.926
				c1.245,1.336,3.019,2.173,4.989,2.173c1.285,0,2.486-0.356,3.512-0.973c1.053,0.618,2.278,0.973,3.586,0.973
				c2.848,0,5.303-1.678,6.433-4.099C67.887,63.84,69.788,61.726,69.788,59.164z"/>
		</g>
		<g>
			<path d="M58.986,68.685c-1.253,0-2.487-0.315-3.584-0.912c-1.071,0.598-2.28,0.912-3.514,0.912c-1.879,0-3.697-0.744-5.039-2.052
				c-0.823,0.528-1.765,0.805-2.745,0.805c-2.224,0-4.187-1.446-4.86-3.548c-2.327-0.518-3.99-2.574-3.99-4.981
				c0-2.778,2.229-5.046,4.993-5.108c-0.19-0.67-0.285-1.362-0.285-2.065c0-4.177,3.398-7.574,7.574-7.574
				c2.742,0,5.228,1.453,6.578,3.819c0.912-0.397,1.881-0.598,2.887-0.598c3.657,0,6.742,2.748,7.204,6.331
				c0.174-0.018,0.342-0.026,0.507-0.026c3.02,0,5.477,2.457,5.477,5.477c0,2.64-1.919,4.917-4.499,5.383
				C64.422,67.068,61.815,68.685,58.986,68.685z M55.397,66.843l0.206,0.121c1.024,0.601,2.194,0.919,3.384,0.919
				c2.59,0,4.973-1.518,6.069-3.868l0.092-0.197l0.216-0.03c2.293-0.321,4.023-2.308,4.023-4.623c0-2.578-2.097-4.675-4.675-4.675
				c-0.249,0-0.51,0.024-0.797,0.074l-0.437,0.075l-0.031-0.443c-0.234-3.37-3.065-6.011-6.446-6.011
				c-1.011,0-1.981,0.228-2.882,0.678l-0.357,0.178l-0.18-0.356c-1.161-2.295-3.478-3.721-6.046-3.721
				c-3.734,0-6.772,3.038-6.772,6.772c0,0.807,0.141,1.596,0.419,2.349l0.221,0.599l-0.636-0.061
				c-0.134-0.013-0.269-0.021-0.406-0.021c-2.375,0-4.307,1.932-4.307,4.307c0,2.1,1.502,3.883,3.572,4.239l0.253,0.044l0.066,0.248
				c0.502,1.881,2.211,3.196,4.157,3.196c0.924,0,1.808-0.293,2.557-0.848l0.288-0.213l0.244,0.263
				c1.21,1.3,2.922,2.045,4.695,2.045c1.167,0,2.309-0.317,3.304-0.916L55.397,66.843z"/>
		</g>
	</g>
	<g>
		<g>
			<path d="M113.792,46.638c0.754,1.375,1.574,2.814,2.358,4.163h-0.821v3.82v9.264v3.82h0.796v2.643v11.74v3.82h3.82h0.272v1.016
				h-2.509v3.82v22.928v3.875l3.875-0.056l10.717-0.154l3.765-0.054v-3.765v-5.042v-3.82h-0.982v-3.098v-1.476
				c0.819-1.348,1.461-2.545,1.921-3.583c0.467,1.027,1.109,2.211,1.92,3.54v1.519v3.065h-0.982v3.82v5.074v3.82h3.82h2.051v35.335
				h-11.424v-0.065h-3.82h-16.795v-9.309v-0.065l-0.002-0.065c-0.191-5.615-4.152-13.969-14.283-13.969
				c-10.097,0-14.15,8.325-14.411,13.92l-0.004,0.089v0.089v9.309h-36.22v-23.887h7.06h3.82v-3.82v-8.85v-3.82h-1.526v-8.229v-1.252
				c1.094-1.273,2.159-2.632,2.938-3.885c0.681-1.069,1.362-2.215,1.985-3.298c0.623,1.091,1.304,2.248,1.98,3.33
				c0.77,1.226,1.822,2.562,2.906,3.822v1.316v8.197h-1.494v3.82v8.03v3.82h3.82h6.568h3.82v-3.82v-16.62v-2.311
				c0.124-0.279,0.247-0.562,0.367-0.846c0.513,1.212,1.086,2.438,1.623,3.562l1.038,2.173h2.408h4.157h3.82v-3.82V85.863v-2.156
				c0.027-0.06,0.053-0.119,0.079-0.178c0.358,0.807,0.695,1.502,0.934,1.979l7.236,14.469v-4.378l2.566,3.788l6.982,10.305V97.246
				v-6.503v-3.82h-2.541v-1.016h0.272h3.82v-3.82v-11.74v-2.675h0.731v-3.82v-9.232v-3.82h-0.767
				C112.23,49.454,113.044,48.016,113.792,46.638 M114.293,29.817h-1.015v7.486c-0.666,0.13-1.105,0.633-1.105,1.267
				c0,0.479,0.317,0.893,0.723,1.145c-0.317,1.746-7.291,13.64-8.176,14.907h3.678v9.232h-2.281v4.758l0.95,1.737h0.601v11.74
				h-4.092v6.341l1.267,2.314h1.275v6.503l-6.122-9.036v-6.983h-3.426v2.574c-0.698-1.396-1.429-3.045-1.908-4.474
				c-1.015-3.077-1.9-7.039-1.9-7.039h-0.252v-1.559c0.787,0.032,2.151,0.162,3.775,0.446c0.197,0.034,0.391,0.05,0.579,0.05
				c2.109,0,3.634-1.949,3.634-1.949s-0.882,0.281-1.952,0.281c-0.896,0-1.924-0.197-2.676-0.923
				c-1.039-0.958-2.356-1.141-3.212-1.141c-0.529,0-0.88,0.07-0.88,0.07l0.032,0.755v3.97h-0.163c0,0-0.853,3.962-1.867,7.039
				c-0.731,2.184-2.16,5.042-2.923,6.536h1.461v20.355h-4.157c-0.787-1.648-1.835-3.897-2.436-5.708
				c-1.112-3.329-2.03-7.575-2.03-7.575H79.6v-6.723h-1.015v6.723h-0.098c0,0-0.95,4.246-2.03,7.575
				c-0.763,2.314-2.249,5.359-3.11,6.95h1.559v16.62h-6.568v-8.03h1.494v-12.016h2.63c-1.648-1.648-4.628-4.791-6.122-7.169
				c-2.16-3.459-4.441-7.835-4.441-7.835h-0.033v-5.838c0.763,0.065,1.746,0.163,2.826,0.349c0.212,0.039,0.42,0.057,0.622,0.057
				c2.098,0,3.624-1.924,3.624-1.924s-0.896,0.282-1.978,0.282c-0.902,0-1.933-0.196-2.682-0.916
				c-1.048-0.991-2.404-1.172-3.253-1.172c-0.487,0-0.807,0.059-0.807,0.059l0.033,3.142h0.13v5.96h-0.033
				c0,0-2.257,4.376-4.441,7.802c-1.494,2.411-4.474,5.554-6.089,7.169h2.566v12.049h1.526v8.85h-10.88v31.527h43.859v-13.129
				c0,0,0.479-10.279,10.595-10.279c10.116,0,10.466,10.279,10.466,10.279v13.129h20.615v0.065h19.064v-42.975h-5.87v-5.074h0.982
				v-6.885h1.746c-1.08-1.551-3.045-4.474-4.06-6.755c-1.429-3.232-2.947-7.453-2.947-7.453v-4.311
				c0.82,0.065,2.094,0.154,3.515,0.414c0.211,0.037,0.419,0.054,0.621,0.054c2.195,0,3.788-1.995,3.788-1.995
				s-0.934,0.296-2.06,0.296c-0.926,0-1.982-0.2-2.755-0.929c-1.015-0.95-2.257-1.169-3.11-1.201v-0.13h-0.95v0.162
				c-0.032,0-0.13,0.033-0.13,0.033l0.065,3.231h0.065v4.474h-0.032c0,0-1.461,4.124-2.923,7.356
				c-0.982,2.282-2.947,5.205-4.027,6.755h1.713v6.918h0.982v5.042l-10.717,0.154V90.743h1.234l1.275-2.314v-6.341h-4.092v-11.74
				h0.568l1.015-1.737v-4.726h-2.379v-9.264h3.743c-0.885-1.267-7.9-13.161-8.249-14.907c0.447-0.252,0.763-0.666,0.763-1.145
				c0-0.633-0.446-1.137-1.112-1.267v-2.728c0.925,0.032,3.11,0.195,5.586,0.601c0.274,0.049,0.543,0.071,0.805,0.071
				c2.829,0,4.903-2.604,4.903-2.604s-1.19,0.374-2.637,0.374c-1.215,0-2.612-0.264-3.639-1.235
				c-1.424-1.318-3.188-1.582-4.34-1.582c-0.261,0-0.49,0.014-0.677,0.031V29.817L114.293,29.817z"/>
		</g>
	</g>
	<g>
		<g>
			<path d="M169.249,66.017c0-2.425-1.966-4.392-4.392-4.392c-0.256,0-0.505,0.026-0.749,0.068
				c-0.214-3.086-2.783-5.523-5.923-5.523c-0.952,0-1.851,0.225-2.649,0.623c-1.023-2.022-3.119-3.41-5.54-3.41
				c-3.427,0-6.206,2.779-6.206,6.206c0,0.757,0.136,1.482,0.384,2.152c-0.126-0.012-0.254-0.019-0.384-0.019
				c-2.25,0-4.073,1.824-4.073,4.073c0,2.012,1.461,3.679,3.379,4.01c0.464,1.739,2.046,3.023,3.931,3.023
				c0.907,0,1.742-0.3,2.419-0.801c1.077,1.156,2.612,1.88,4.316,1.88c1.111,0,2.151-0.308,3.038-0.842
				c0.911,0.534,1.971,0.842,3.103,0.842c2.464,0,4.588-1.452,5.566-3.546C167.605,70.063,169.249,68.234,169.249,66.017z"/>
		</g>
		<g>
			<path d="M159.904,74.254c-1.084,0-2.152-0.272-3.1-0.789c-0.927,0.517-1.974,0.789-3.04,0.789c-1.626,0-3.199-0.643-4.36-1.775
				c-0.712,0.457-1.527,0.697-2.375,0.697c-1.924,0-3.622-1.251-4.205-3.07c-2.013-0.449-3.452-2.227-3.452-4.31
				c0-2.404,1.928-4.366,4.32-4.419c-0.164-0.579-0.247-1.178-0.247-1.787c0-3.614,2.939-6.553,6.553-6.553
				c2.373,0,4.523,1.257,5.69,3.303c0.789-0.343,1.628-0.517,2.498-0.517c3.164,0,5.833,2.377,6.232,5.477
				c0.151-0.015,0.297-0.022,0.439-0.022c2.613,0,4.739,2.126,4.739,4.739c0,2.285-1.66,4.255-3.892,4.658
				C164.608,72.855,162.351,74.254,159.904,74.254z M156.799,72.661l0.178,0.104c0.885,0.52,1.898,0.795,2.927,0.795
				c2.241,0,4.303-1.313,5.252-3.346l0.08-0.171l0.186-0.026c1.984-0.277,3.48-1.997,3.48-4.001c0-2.23-1.815-4.045-4.045-4.045
				c-0.216,0-0.442,0.021-0.69,0.064l-0.379,0.065l-0.027-0.383c-0.201-2.916-2.651-5.2-5.576-5.2c-0.875,0-1.714,0.198-2.494,0.587
				l-0.309,0.154l-0.156-0.308c-1.004-1.986-3.008-3.22-5.23-3.22c-3.231,0-5.859,2.628-5.859,5.859
				c0,0.698,0.122,1.382,0.362,2.032l0.192,0.518l-0.551-0.053c-0.116-0.011-0.232-0.018-0.351-0.018
				c-2.055,0-3.726,1.672-3.726,3.726c0,1.817,1.3,3.359,3.09,3.668l0.219,0.038l0.057,0.215c0.434,1.628,1.913,2.765,3.596,2.765
				c0.799,0,1.564-0.254,2.212-0.733l0.249-0.185l0.212,0.227c1.047,1.124,2.528,1.769,4.063,1.769c1.009,0,1.998-0.274,2.859-0.793
				L156.799,72.661z"/>
		</g>
	</g>
</g>
</svg>
