<?xml version="1.0" encoding="utf-8"?>
<!-- Generator: Adobe Illustrator 17.0.0, SVG Export Plug-In . SVG Version: 6.00 Build 0)  -->
<!DOCTYPE svg PUBLIC "-//W3C//DTD SVG 1.1//EN" "http://www.w3.org/Graphics/SVG/1.1/DTD/svg11.dtd">
<svg version="1.1" id="图层_1" xmlns="http://www.w3.org/2000/svg" xmlns:xlink="http://www.w3.org/1999/xlink" x="0px" y="0px"
	 width="195.199px" height="195.199px" viewBox="0 0 195.199 195.199" enable-background="new 0 0 195.199 195.199"
	 xml:space="preserve">
<g>
	<g>
		<g>
			<g>
				<path d="M97.6,195.199c-53.817,0-97.6-43.783-97.6-97.599S43.783,0,97.6,0s97.599,43.783,97.599,97.6
					S151.416,195.199,97.6,195.199z M97.6,3.819c-51.711,0-93.78,42.069-93.78,93.78c0,51.71,42.07,93.78,93.78,93.78
					s93.78-42.07,93.78-93.78C191.379,45.888,149.31,3.819,97.6,3.819z"/>
			</g>
		</g>
	</g>
	<g>
		<g>
			<path d="M113.229,47.071c-8.911,0-16.161-7.249-16.161-16.161c0-8.911,7.25-16.161,16.161-16.161s16.161,7.249,16.161,16.161
				C129.389,39.821,122.14,47.071,113.229,47.071z M113.229,18.569c-6.805,0-12.341,5.536-12.341,12.341s5.536,12.341,12.341,12.341
				c6.805,0,12.341-5.536,12.341-12.341S120.034,18.569,113.229,18.569z"/>
		</g>
	</g>
	<g>
		<g>
			<g>
				
					<rect x="32.224" y="86.531" transform="matrix(0.9377 0.3474 -0.3474 0.9377 37.4451 -11.2954)" width="36.004" height="24.513"/>
			</g>
		</g>
		<g>
			<g>
				<path d="M59.646,96.696l-15.204-5.632l5.632-15.206l15.205,5.632L59.646,96.696z M47.067,89.857L58.44,94.07l4.214-11.373
					L51.28,78.484L47.067,89.857z"/>
			</g>
		</g>
	</g>
	<g>
		<g>
			<path d="M136.755,171.639c-1.767,0-3.492-0.497-4.859-1.4c-2.339-1.545-3.577-4.15-3.398-7.146
				c0.607-10.105,1.294-21.557-4.659-31.116c-4.55-7.303-11.763-12.54-20.309-14.745c-1.159-0.299-2.195-0.795-3.086-1.476
				l-6.634-1.316c-3.879,12.24-11.072,26.871-20.283,33.036c-11.003,7.363-23.42,8.215-31.804,8.215
				c-3.611,0-7.082-0.181-9.702-0.339c-3.191-0.191-5.823-1.905-7.221-4.702c-1.437-2.875-1.269-6.523,0.419-9.079
				c1.541-2.336,4.143-3.572,7.144-3.396c10.104,0.609,21.555,1.298,31.117-4.659c6.405-3.99,12.021-16.433,14.745-26.995
				c0.215-0.834,0.536-1.61,0.954-2.314l7.263-39.786c-1.487,0.051-2.916,0.179-4.267,0.381
				c-8.347,1.254-12.907,4.806-14.785,11.516c-1.069,3.822-4.585,6.492-8.552,6.492c-0.81,0-1.617-0.111-2.398-0.33
				c-2.283-0.639-4.182-2.13-5.346-4.197c-1.164-2.066-1.453-4.464-0.814-6.751c2.781-9.94,8.971-17.078,18.399-21.217
				c7.512-3.298,15.43-3.901,21.239-3.736l0.115-0.576l4.434,0.878c2.009,0.213,3.937,0.52,5.731,0.915
				c0.573,0.125,1.141,0.312,1.691,0.559l25.58,5.072c0.927-0.067,1.827-0.166,2.681-0.294c8.348-1.253,12.908-4.805,14.785-11.516
				c0.639-2.285,2.131-4.184,4.201-5.349c2.067-1.162,4.464-1.452,6.749-0.813h0.001c4.716,1.32,7.48,6.231,6.162,10.948
				c-5.884,21.031-25.847,24.53-35.722,24.936l-6.232,34.154c7.041,3.959,13.143,9.617,17.708,16.436
				c8.781,13.122,8.67,28.305,7.877,41.506c-0.191,3.191-1.905,5.824-4.703,7.221C139.688,171.299,138.23,171.639,136.755,171.639z
				 M91.156,110.021l11.001,2.18l0.386,0.339c0.526,0.463,1.18,0.796,1.941,0.993c9.501,2.452,17.526,8.285,22.597,16.424
				c6.597,10.593,5.871,22.691,5.23,33.366c-0.069,1.147,0.168,2.725,1.689,3.729c1.395,0.922,3.629,1.007,5.266,0.189
				c1.565-0.782,2.488-2.215,2.597-4.033c0.756-12.581,0.883-27.018-7.238-39.154c-4.477-6.688-10.545-12.17-17.549-15.852
				l-1.242-0.653l7.292-39.969l1.574-0.019c8.283-0.097,28.145-2.452,33.666-22.187c0.752-2.688-0.823-5.488-3.511-6.241l0,0
				c-1.303-0.362-2.668-0.2-3.849,0.464c-1.18,0.664-2.03,1.747-2.394,3.049c-2.274,8.132-8.128,12.797-17.896,14.263
				c-1.033,0.156-2.124,0.271-3.243,0.346l-0.251,0.016l-26.538-5.262l-0.218-0.104c-0.355-0.171-0.72-0.297-1.086-0.378
				c-1.683-0.37-3.498-0.657-5.398-0.856l-0.172-0.026l-0.776-0.154l-0.013,0.065l-1.656-0.092
				c-4.484-0.253-13.187-0.148-21.151,3.349c-8.329,3.656-13.798,9.964-16.255,18.749c-0.365,1.303-0.2,2.669,0.463,3.847
				c0.664,1.18,1.746,2.029,3.048,2.394c0.447,0.125,0.906,0.188,1.368,0.188c2.26,0,4.264-1.522,4.874-3.701
				c2.275-8.132,8.129-12.797,17.896-14.264c2.231-0.335,4.637-0.477,7.159-0.444l2.252,0.036L82.8,105.64l-0.218,0.328
				c-0.292,0.439-0.514,0.947-0.659,1.509c-0.977,3.789-6.364,23.014-16.423,29.28c-10.597,6.601-22.691,5.873-33.365,5.23
				c-1.149-0.069-2.726,0.17-3.729,1.689c-0.946,1.432-1.024,3.598-0.19,5.266c0.782,1.567,2.215,2.489,4.034,2.598
				c2.567,0.154,5.964,0.331,9.473,0.331c7.885,0,19.541-0.784,29.679-7.569c8.789-5.882,15.711-20.706,19.257-32.616
				L91.156,110.021z"/>
		</g>
	</g>
</g>
</svg>
