<?xml version="1.0" encoding="utf-8"?>
<!-- Generator: Adobe Illustrator 17.0.0, SVG Export Plug-In . SVG Version: 6.00 Build 0)  -->
<!DOCTYPE svg PUBLIC "-//W3C//DTD SVG 1.1//EN" "http://www.w3.org/Graphics/SVG/1.1/DTD/svg11.dtd">
<svg version="1.1" id="图层_1" xmlns="http://www.w3.org/2000/svg" xmlns:xlink="http://www.w3.org/1999/xlink" x="0px" y="0px"
	 width="195.199px" height="195.199px" viewBox="0 0 195.199 195.199" enable-background="new 0 0 195.199 195.199"
	 xml:space="preserve">
<g>
	<g>
		<g>
			<g>
				<rect x="41.479" y="69.163" width="3.82" height="42.889"/>
			</g>
		</g>
		<g>
			<g>
				<polygon points="51.078,125.833 43.389,105.788 35.701,125.833 				"/>
			</g>
		</g>
		<g>
			<g>
				<path d="M98.611,168.643c-0.237,0-0.473-0.002-0.711-0.006c-22.334-0.373-40.504-19.145-40.504-41.847V87.058L91.489,100.7
					c4.588,1.836,9.642,1.836,14.229,0l34.092-13.642v40.379c0,11.137-4.374,21.572-12.315,29.381
					C119.725,164.46,109.492,168.643,98.611,168.643z M61.216,92.701v34.089c0,20.631,16.485,37.691,36.747,38.029
					c10.113,0.147,19.65-3.639,26.853-10.724c7.206-7.086,11.174-16.554,11.174-26.658V92.701l-28.854,11.546
					c-5.502,2.202-11.563,2.203-17.067,0L61.216,92.701z"/>
			</g>
		</g>
		<g>
			<g>
				<g>
					<circle cx="81.517" cy="118.887" r="5.553"/>
				</g>
			</g>
			<g>
				<g>
					<circle cx="115.69" cy="118.887" r="5.553"/>
				</g>
			</g>
		</g>
		<g>
			<g>
				<path d="M82.733,141.969c2.843,5.912,8.872,10.003,15.871,10.003c6.999,0,13.027-4.091,15.871-10.003H82.733z"/>
			</g>
		</g>
		<g>
			<g>
				<path d="M98.605,93.981c-2.033,0-4.065-0.388-6-1.166L55.221,77.791l18.893-15.115L46.087,74.12l-23.109-9.287
					c-1.755-0.705-2.888-2.383-2.889-4.274c0-1.891,1.133-3.568,2.888-4.274L91.03,28.932c4.641-1.867,9.757-1.875,14.406-0.023
					l68.756,27.383h0c1.76,0.701,2.899,2.377,2.902,4.272c0.003,1.894-1.131,3.574-2.888,4.281l-69.6,27.97
					C102.671,93.592,100.638,93.981,98.605,93.981z M62.716,76.687L94.029,89.27c2.95,1.185,6.2,1.186,9.152,0l69.6-27.97
					c0.429-0.173,0.493-0.532,0.493-0.731c0-0.199-0.065-0.558-0.495-0.729h0l-68.755-27.383c-3.732-1.486-7.84-1.479-11.567,0.019
					L24.401,59.83c-0.429,0.172-0.493,0.531-0.493,0.729c0,0.199,0.064,0.557,0.493,0.73l21.674,8.711l51.06-20.85L62.716,76.687z"
					/>
			</g>
		</g>
	</g>
	<g>
		<g>
			<path d="M97.599,194.873C43.782,194.873,0,151.09,0,97.273s43.783-97.6,97.599-97.6s97.6,43.783,97.6,97.6
				S151.416,194.873,97.599,194.873z M97.599,3.493c-51.711,0-93.78,42.07-93.78,93.78s42.069,93.78,93.78,93.78
				s93.78-42.069,93.78-93.78S149.31,3.493,97.599,3.493z"/>
		</g>
	</g>
</g>
</svg>
