<?xml version="1.0" encoding="utf-8"?>
<!-- Generator: Adobe Illustrator 17.0.0, SVG Export Plug-In . SVG Version: 6.00 Build 0)  -->
<!DOCTYPE svg PUBLIC "-//W3C//DTD SVG 1.1//EN" "http://www.w3.org/Graphics/SVG/1.1/DTD/svg11.dtd">
<svg version="1.1" id="图层_1" xmlns="http://www.w3.org/2000/svg" xmlns:xlink="http://www.w3.org/1999/xlink" x="0px" y="0px"
	 width="195.199px" height="195.199px" viewBox="0 0 195.199 195.199" enable-background="new 0 0 195.199 195.199"
	 xml:space="preserve">
<g>
	<g>
		<g>
			<g>
				<path d="M97.6,195.199C43.783,195.199,0,151.416,0,97.6S43.783,0,97.6,0s97.599,43.783,97.599,97.6
					S151.416,195.199,97.6,195.199z M97.6,3.82C45.889,3.82,3.82,45.889,3.82,97.6c0,51.71,42.07,93.78,93.78,93.78
					s93.78-42.07,93.78-93.78C191.38,45.889,149.31,3.82,97.6,3.82z"/>
			</g>
		</g>
	</g>
	<g>
		<g>
			<g>
				<path d="M126.284,68.662h-33.48c-1.055,0-1.91-0.855-1.91-1.91s0.855-1.91,1.91-1.91h33.48c1.055,0,1.91,0.855,1.91,1.91
					S127.338,68.662,126.284,68.662z"/>
			</g>
		</g>
		<g>
			<g>
				<path d="M126.284,87.942h-33.48c-1.055,0-1.91-0.855-1.91-1.91s0.855-1.91,1.91-1.91h33.48c1.055,0,1.91,0.855,1.91,1.91
					S127.338,87.942,126.284,87.942z"/>
			</g>
		</g>
		<g>
			<g>
				<path d="M126.284,108.053h-33.48c-1.055,0-1.91-0.855-1.91-1.91s0.855-1.91,1.91-1.91h33.48c1.055,0,1.91,0.855,1.91,1.91
					S127.338,108.053,126.284,108.053z"/>
			</g>
		</g>
		<g>
			<g>
				<path d="M113.153,127.332H92.804c-1.055,0-1.91-0.855-1.91-1.91s0.855-1.91,1.91-1.91h20.349c1.055,0,1.91,0.855,1.91,1.91
					S114.208,127.332,113.153,127.332z"/>
			</g>
		</g>
		<g>
			<g>
				<path d="M72.127,74.158L72.127,74.158c-0.507,0-0.992-0.201-1.351-0.56l-6.227-6.228c-0.746-0.746-0.746-1.955,0-2.701
					c0.746-0.746,1.955-0.746,2.701,0l4.877,4.878l11.125-11.125c0.745-0.746,1.955-0.746,2.701,0c0.746,0.746,0.746,1.955,0,2.701
					L73.477,73.599C73.119,73.957,72.633,74.158,72.127,74.158z"/>
			</g>
		</g>
		<g>
			<g>
				<path d="M138.138,97.363c-17.967,0-32.533,14.566-32.533,32.533c0,17.968,14.566,32.533,32.533,32.533
					c17.968,0,32.533-14.566,32.533-32.533C170.671,111.929,156.105,97.363,138.138,97.363z M158.667,121.914L136.28,144.3
					c-0.994,0.994-2.343,1.553-3.748,1.553c-1.406,0-2.754-0.559-3.748-1.553l-11.175-11.175c-2.07-2.07-2.07-5.427,0-7.497
					c2.071-2.07,5.426-2.07,7.497,0l7.426,7.427l18.638-18.638c2.071-2.07,5.426-2.07,7.497,0
					C160.737,116.487,160.737,119.844,158.667,121.914z"/>
			</g>
		</g>
		<g>
			<g>
				<path d="M127.597,36.139c4.333,0,7.878,3.545,7.878,7.878v53.464c-16.72,1.356-29.87,15.346-29.87,32.416
					c0,5.236,1.244,10.179,3.442,14.561H64.575c-4.333,0-7.878-3.545-7.878-7.878V44.017c0-4.333,3.545-7.878,7.878-7.878H127.597
					 M127.597,32.319H64.575c-6.45,0-11.697,5.247-11.697,11.697v92.563c0,6.45,5.247,11.697,11.697,11.697h44.471h6.189
					l-2.775-5.532c-2.015-4.018-3.037-8.341-3.037-12.849c0-7.258,2.715-14.185,7.646-19.504c4.904-5.29,11.55-8.524,18.713-9.105
					l3.511-0.285v-3.522V44.017C139.294,37.567,134.047,32.319,127.597,32.319L127.597,32.319z"/>
			</g>
		</g>
		<g>
			<g>
				<path d="M135.475,44.017c0-4.333-3.545-7.878-7.878-7.878H64.575c-4.333,0-7.878,3.545-7.878,7.878v7.878h78.777V44.017z"/>
			</g>
		</g>
		<g>
			<g>
				<path d="M72.127,93.853c-0.489,0-0.978-0.187-1.35-0.56l-6.227-6.227c-0.746-0.746-0.746-1.955,0-2.701
					c0.745-0.746,1.955-0.746,2.701,0l4.877,4.877l11.125-11.125c0.745-0.746,1.955-0.746,2.701,0c0.746,0.746,0.746,1.955,0,2.701
					L73.477,93.293C73.105,93.666,72.616,93.853,72.127,93.853z"/>
			</g>
		</g>
		<g>
			<g>
				<path d="M72.127,113.549c-0.489,0-0.978-0.187-1.35-0.56l-6.227-6.227c-0.746-0.746-0.746-1.955,0-2.701
					c0.745-0.746,1.955-0.746,2.701,0l4.877,4.877l11.125-11.125c0.745-0.746,1.955-0.746,2.701,0c0.746,0.746,0.746,1.955,0,2.701
					l-12.475,12.475C73.105,113.362,72.616,113.549,72.127,113.549z"/>
			</g>
		</g>
		<path d="M95.654,15.637c-3.077,0-5.58,2.503-5.58,5.58v4.647h-7.929c-3.077,0-5.58,2.503-5.58,5.58c0,3.077,2.503,5.58,5.58,5.58
			h27.019c3.077,0,5.58-2.503,5.58-5.58c0-3.077-2.503-5.58-5.58-5.58h-7.93v-4.647C101.233,18.14,98.731,15.637,95.654,15.637z
			 M95.654,24.223c-1.632,0-2.954-1.323-2.954-2.954c0-1.632,1.323-2.954,2.954-2.954c1.632,0,2.954,1.323,2.954,2.954
			C98.608,22.9,97.285,24.223,95.654,24.223z"/>
	</g>
</g>
</svg>
