<?xml version="1.0" encoding="utf-8"?>
<!-- Generator: Adobe Illustrator 17.0.0, SVG Export Plug-In . SVG Version: 6.00 Build 0)  -->
<!DOCTYPE svg PUBLIC "-//W3C//DTD SVG 1.1//EN" "http://www.w3.org/Graphics/SVG/1.1/DTD/svg11.dtd">
<svg version="1.1" id="图层_1" xmlns="http://www.w3.org/2000/svg" xmlns:xlink="http://www.w3.org/1999/xlink" x="0px" y="0px"
	 width="195.199px" height="195.199px" viewBox="0 0 195.199 195.199" enable-background="new 0 0 195.199 195.199"
	 xml:space="preserve">
<g>
	<g>
		<g>
			<path d="M97.956,195.802c-53.817,0-97.6-43.783-97.6-97.599s43.783-97.6,97.6-97.6s97.599,43.783,97.599,97.6
				S151.772,195.802,97.956,195.802z M97.956,4.423c-51.711,0-93.78,42.07-93.78,93.78s42.07,93.78,93.78,93.78
				s93.78-42.069,93.78-93.78S149.666,4.423,97.956,4.423z"/>
		</g>
	</g>
	<g>
		<g>
			<path d="M150.461,86.56c-14.55-4.83-32.338-7.451-51.029-7.451c-18.684,0-36.466,2.619-51.013,7.445
				c0.062,0.398,0.121,0.797,0.174,1.198c0.035,0.264,0.121,0.509,0.243,0.732c-0.028,0.316-0.046,0.634-0.046,0.954
				c0,2.021,0.572,3.98,1.642,5.848c13.769-4.701,30.887-7.257,49-7.257c18.113,0,35.231,2.556,49,7.257
				c1.071-1.868,1.643-3.828,1.643-5.848c0-0.311-0.018-0.621-0.044-0.929c0.129-0.229,0.222-0.483,0.258-0.757
				C150.341,87.353,150.399,86.955,150.461,86.56z"/>
		</g>
	</g>
	<g>
		<g>
			<path d="M99.431,118.479c-13.411,0-26.463-3.208-36.751-9.035c-10.042-5.687-15.802-12.979-15.802-20.007
				c0-0.208,0.007-0.415,0.018-0.622c-0.095-0.264-0.161-0.536-0.197-0.813c-1.604-12.032-7.449-22.755-10.79-28.075
				c-0.779-1.24-0.822-2.804-0.113-4.081c0.711-1.281,2.065-2.076,3.535-2.076c0.049,0.004,0.094,0,0.14,0
				c18.161,0,39.03-13.613,42.972-18.34c0.119-0.143,0.247-0.274,0.387-0.395c5.262-9.113,10.846-13.732,16.601-13.732
				c5.748,0,11.326,4.609,16.583,13.701c0.153,0.13,0.294,0.272,0.422,0.425c3.944,4.728,24.813,18.342,42.973,18.342
				c0.043,0,0.083,0,0.127,0l0,0c0.005,0,0.009,0,0.014,0c1.47,0,2.824,0.795,3.535,2.076c0.709,1.277,0.665,2.841-0.113,4.081
				c-3.341,5.32-9.186,16.043-10.79,28.077c-0.038,0.29-0.11,0.575-0.213,0.852c0.01,0.194,0.016,0.387,0.016,0.581
				c0,7.028-5.759,14.321-15.802,20.007C125.894,115.271,112.842,118.479,99.431,118.479z M39.328,57.589
				c-0.039,0-0.133,0.003-0.192,0.11c-0.054,0.097-0.014,0.162,0.008,0.197c3.506,5.583,9.642,16.853,11.341,29.603l0.278,0.509
				l-0.026,0.647c-0.024,0.259-0.039,0.52-0.039,0.782c0,11.424,21.738,25.222,48.733,25.222s48.733-13.798,48.733-25.222
				c0-0.256-0.015-0.511-0.037-0.765l-0.05-0.587l0.289-0.513c1.728-12.823,7.864-24.093,11.37-29.676
				c0.022-0.035,0.062-0.099,0.008-0.197c-0.06-0.109-0.129-0.12-0.196-0.11l0,0c-0.046,0-0.091,0-0.137,0
				c-19.142,0-41.123-13.976-45.908-19.714l-0.421-0.256l-0.186-0.374c-3.153-5.53-8.049-12.123-13.465-12.123
				c-5.422,0-10.321,6.603-13.476,12.141l-0.233,0.409l-0.396,0.254c-4.734,5.687-26.716,19.662-45.857,19.663
				C39.421,57.59,39.373,57.596,39.328,57.589z"/>
		</g>
	</g>
	<g>
		<g>
			<g>
				<path d="M99.44,45.309h9.731v11.687c0,0,0.199,5.1-9.731,13.071c-9.929-7.971-9.731-13.071-9.731-13.071V45.309H99.44z"/>
			</g>
		</g>
	</g>
	<g>
		<g>
			<circle cx="79.166" cy="126.572" r="7.777"/>
		</g>
	</g>
	<g>
		<g>
			<circle cx="119.715" cy="126.572" r="7.777"/>
		</g>
	</g>
	<g>
		<g>
			<path d="M99.44,177.853l-0.543-0.161c-30.565-9.064-40.798-28.96-44-44.055c-3.448-16.254,0.261-30.164,0.42-30.747l3.685,1.005
				c-0.037,0.136-3.638,13.716-0.339,29.085c4.345,20.246,18.063,34,40.778,40.887c22.715-6.887,36.433-20.641,40.778-40.887
				c3.298-15.369-0.303-28.95-0.339-29.085l3.685-1.005c0.159,0.584,3.869,14.493,0.42,30.747
				c-3.203,15.095-13.436,34.991-44,44.055L99.44,177.853z"/>
		</g>
	</g>
	<g>
		<g>
			<path d="M55.743,133.764c-6.871,0-11.487-6.778-11.487-13.11c0-6.445,4.724-10.946,11.487-10.946v3.82
				c-4.729,0-7.667,2.731-7.667,7.127c0,4.486,3.081,9.29,7.667,9.29V133.764z"/>
		</g>
	</g>
	<g>
		<g>
			<path d="M143.077,133.764v-3.82c4.587,0,7.668-4.804,7.668-9.29c0-4.396-2.938-7.127-7.668-7.127v-3.82
				c6.764,0,11.487,4.501,11.487,10.946C154.565,126.985,149.949,133.764,143.077,133.764z"/>
		</g>
	</g>
</g>
</svg>
