<?xml version="1.0" encoding="utf-8"?>
<!-- Generator: Adobe Illustrator 17.0.0, SVG Export Plug-In . SVG Version: 6.00 Build 0)  -->
<!DOCTYPE svg PUBLIC "-//W3C//DTD SVG 1.1//EN" "http://www.w3.org/Graphics/SVG/1.1/DTD/svg11.dtd">
<svg version="1.1" id="图层_1" xmlns="http://www.w3.org/2000/svg" xmlns:xlink="http://www.w3.org/1999/xlink" x="0px" y="0px"
	 width="195.199px" height="195.199px" viewBox="0 0 195.199 195.199" enable-background="new 0 0 195.199 195.199"
	 xml:space="preserve">
<g>
	<g>
		<g>
			<g>
				<path d="M97.687,195.644c-53.817,0-97.599-43.783-97.599-97.599s43.783-97.6,97.599-97.6s97.599,43.783,97.599,97.6
					S151.503,195.644,97.687,195.644z M97.687,4.265c-51.711,0-93.78,42.07-93.78,93.78s42.069,93.78,93.78,93.78
					s93.78-42.069,93.78-93.78S149.397,4.265,97.687,4.265z"/>
			</g>
		</g>
	</g>
	<g>
		<g>
			<g>
				<g>
					<path d="M132.928,108.047c0,10.721-8.691,19.411-19.411,19.411c10.721,0,19.411,8.691,19.411,19.411h0.294
						c0-10.721,8.691-19.411,19.411-19.411c-10.721,0-19.411-8.691-19.411-19.411"/>
				</g>
			</g>
		</g>
		<g>
			<g>
				<g>
					<path d="M154.386,131.995c0,6.604-5.353,11.957-11.957,11.957c6.604,0,11.957,5.353,11.957,11.957h0.181
						c0-6.604,5.353-11.957,11.957-11.957c-6.604,0-11.957-5.353-11.957-11.957"/>
				</g>
			</g>
		</g>
		<g>
			<g>
				<g>
					<path d="M137.747,147.808c0,5.034-4.08,9.114-9.114,9.114c5.034,0,9.114,4.081,9.114,9.114h0.138
						c0-5.034,4.08-9.114,9.114-9.114c-5.034,0-9.114-4.08-9.114-9.114"/>
				</g>
			</g>
		</g>
	</g>
	<g>
		<g>
			<g>
				<path d="M110.704,80.152c2.609,2.366,4.699,5.089,6.273,8.024l34.748-45.263c1.581-2.055,1.489-5.012-0.341-6.967
					c-2.035-2.174-5.446-2.286-7.62-0.251l-41.658,38.996C105.181,75.972,108.095,77.786,110.704,80.152z"/>
			</g>
		</g>
		<g>
			<g>
				<path d="M98.879,124.858c2.663-1.255,5.128-3.042,7.229-5.359c8.543-9.421,7.831-23.983-1.59-32.525
					c-9.421-8.543-23.983-7.831-32.525,1.59c-2.101,2.316-3.639,4.945-4.628,7.717L98.879,124.858z"/>
			</g>
		</g>
		<g>
			<g>
				<path d="M76.924,174.991c-6.092,0-17.184-3.232-34.802-19.208l2.565-2.829c21.656,19.637,32.234,18.653,35.104,17.805
					c0.243-24.332,12.312-40.913,16.359-45.797L67.469,98.953c-4.464,4.504-19.786,18.129-43.972,20.747
					c-0.543,2.946-0.464,13.615,21.134,33.201l-2.565,2.829c-27.902-25.302-22.396-37.431-21.676-38.731l0.49-0.885l1.008-0.092
					c27.642-2.517,43.876-20.81,44.037-20.995l1.28-1.468l34.347,31.143l-1.342,1.417c-0.167,0.177-16.789,18.118-16.598,45.874
					l0.007,1.012l-0.833,0.574C82.332,173.889,80.48,174.991,76.924,174.991z"/>
			</g>
		</g>
		<g>
			<g>
				<path d="M25.158,133.045c0,0,14.268,1.62,20.351-4.516c0,0-7.98,9.235-14.217,13.324L25.158,133.045z"/>
			</g>
		</g>
		<g>
			<g>
				<path d="M69.305,149.732l-10.06,16.127l10.013,6.177C69.258,172.036,66.061,157.444,69.305,149.732z"/>
			</g>
		</g>
		<g>
			<g>
				<path d="M61.388,134.478c0,0-16.912,14.385-25.159,12.929c0,0,3.615,3.731,14.611,13.702
					C50.84,161.11,51.424,144.933,61.388,134.478z"/>
			</g>
		</g>
	</g>
</g>
</svg>
