<?xml version="1.0" encoding="utf-8"?>
<!-- Generator: Adobe Illustrator 17.0.0, SVG Export Plug-In . SVG Version: 6.00 Build 0)  -->
<!DOCTYPE svg PUBLIC "-//W3C//DTD SVG 1.1//EN" "http://www.w3.org/Graphics/SVG/1.1/DTD/svg11.dtd">
<svg version="1.1" id="图层_1" xmlns="http://www.w3.org/2000/svg" xmlns:xlink="http://www.w3.org/1999/xlink" x="0px" y="0px"
	 width="195.199px" height="195.199px" viewBox="0 0 195.199 195.199" enable-background="new 0 0 195.199 195.199"
	 xml:space="preserve">
<g>
	<g>
		<g>
			<g>
				<path d="M97.278,195.855c-53.817,0-97.599-43.783-97.599-97.599S43.462,0.656,97.278,0.656s97.6,43.783,97.6,97.599
					S151.095,195.855,97.278,195.855z M97.278,4.476c-51.711,0-93.78,42.07-93.78,93.78s42.069,93.78,93.78,93.78
					s93.78-42.07,93.78-93.78S148.989,4.476,97.278,4.476z"/>
			</g>
		</g>
	</g>
	<g>
		<g>
			<path d="M99.133,63.499c-13.503,0-24.488-10.986-24.488-24.489s10.986-24.488,24.488-24.488s24.488,10.986,24.488,24.488
				S112.636,63.499,99.133,63.499z M99.133,18.341c-11.397,0-20.669,9.272-20.669,20.669c0,11.397,9.272,20.669,20.669,20.669
				s20.669-9.272,20.669-20.669C119.802,27.613,110.53,18.341,99.133,18.341z"/>
		</g>
	</g>
	<g>
		<g>
			<g>
				<path d="M99.188,179.659l-45.893-22.156v-44.864l45.893-22.156l45.893,22.156v44.864L99.188,179.659z M57.115,155.107
					l42.073,20.311l42.073-20.311v-40.071L99.188,94.724l-42.073,20.311V155.107z"/>
			</g>
		</g>
		<g>
			<g>
				<polygon points="99.188,134.878 54.448,115.591 55.961,112.083 99.188,130.719 142.415,112.083 143.927,115.591 				"/>
			</g>
		</g>
		<g>
			<g>
				<rect x="97.278" y="132.798" width="3.82" height="44.74"/>
			</g>
		</g>
		<g>
			<g>
				<g>
					<polygon points="128.05,143.088 117.654,148.039 117.654,127.331 71.401,105.54 83.411,99.735 128.05,120.806 					"/>
				</g>
			</g>
		</g>
	</g>
	<g>
		<g>
			<g>
				<path d="M127.948,104.368l0-5.283c2.803,2.53,5.164,5.474,6.951,8.638l5.503,2.657c-0.051-0.112-0.106-0.221-0.152-0.337
					c-2.588-6.5-7.142-12.226-13.171-16.559l-3.303-2.374l0.283,4.057c0.048,0.68,0.069,1.241,0.069,1.767l0,5.589L127.948,104.368z
					"/>
			</g>
		</g>
		<g>
			<g>
				<path d="M56.811,110.043c-0.17,0.427-0.38,0.825-0.62,1.197l5.512-2.661c2.068-3.94,5.011-7.548,8.615-10.515v6.356l3.82-1.844
					v-5.642c0-0.851,0.044-1.714,0.13-2.562l0.406-4.001l-3.358,2.215C64.71,96.944,59.559,103.143,56.811,110.043z"/>
			</g>
		</g>
		<g>
			<g>
				<path d="M156.543,103.555c-7.899-19.839-27.539-33.832-48.87-34.82c-0.679-0.03-1.384,0.007-2.094,0.117
					c-4.418-1.012-9.033-0.966-13.408,0.121c-0.915-0.201-1.845-0.28-2.781-0.238c-21.332,0.988-40.972,14.981-48.871,34.82
					c-2.178,5.471,0.5,11.693,5.969,13.871c0.539,0.215,1.1,0.387,1.665,0.511c1.757,0.387,3.512,0.311,5.142-0.139v-4.049
					c-1.311,0.6-2.815,0.79-4.322,0.457c-0.364-0.079-0.724-0.189-1.071-0.328c-3.513-1.399-5.233-5.396-3.835-8.91
					c7.354-18.47,25.639-31.497,45.5-32.417c0.713-0.032,1.422,0.045,2.115,0.234l0.496,0.135l0.497-0.132
					c4.031-1.076,8.313-1.126,12.391-0.132l0.404,0.098l0.409-0.079c0.562-0.108,1.091-0.15,1.615-0.124
					c19.86,0.92,38.145,13.947,45.499,32.417c1.399,3.514-0.321,7.511-3.836,8.911c-0.346,0.138-0.706,0.248-1.072,0.328
					c-1.022,0.226-2.044,0.213-3.006-0.007v3.884c1.242,0.178,2.534,0.139,3.826-0.146c0.567-0.124,1.127-0.296,1.665-0.51
					C156.043,115.248,158.721,109.026,156.543,103.555z"/>
			</g>
		</g>
	</g>
</g>
</svg>
