<?xml version="1.0" encoding="utf-8"?>
<!-- Generator: Adobe Illustrator 17.0.0, SVG Export Plug-In . SVG Version: 6.00 Build 0)  -->
<!DOCTYPE svg PUBLIC "-//W3C//DTD SVG 1.1//EN" "http://www.w3.org/Graphics/SVG/1.1/DTD/svg11.dtd">
<svg version="1.1" id="图层_1" xmlns="http://www.w3.org/2000/svg" xmlns:xlink="http://www.w3.org/1999/xlink" x="0px" y="0px"
	 width="195.199px" height="195.199px" viewBox="0 0 195.199 195.199" enable-background="new 0 0 195.199 195.199"
	 xml:space="preserve">
<g>
	<g>
		<g>
			<path d="M97.238,195.447c-53.817,0-97.6-43.783-97.6-97.599s43.784-97.6,97.6-97.6s97.599,43.783,97.599,97.6
				S151.055,195.447,97.238,195.447z M97.238,4.067c-51.711,0-93.781,42.07-93.781,93.78s42.07,93.78,93.781,93.78
				c51.71,0,93.78-42.069,93.78-93.78S148.948,4.067,97.238,4.067z"/>
		</g>
	</g>
	<g>
		<g>
			<g>
				<path stroke="#FFFFFF" stroke-width="3.5579" stroke-miterlimit="10" d="M59.983,117.831"/>
			</g>
		</g>
		<g>
			<g>
				<path d="M45.07,79.913c-0.207,0-0.418-0.03-0.626-0.094c-1.121-0.345-1.749-1.534-1.404-2.654
					c0.528-1.714,1.246-3.372,2.135-4.927c2.759-4.825,7.14-8.581,12.337-10.577c1.09-0.421,2.323,0.125,2.743,1.221
					c0.421,1.095-0.127,2.323-1.222,2.743c-4.285,1.646-7.898,4.743-10.172,8.721c-0.734,1.283-1.327,2.652-1.763,4.068
					C46.818,79.326,45.978,79.913,45.07,79.913z"/>
			</g>
		</g>
		<g>
			<g>
				<path d="M33.938,78.819c-0.207,0-0.417-0.03-0.625-0.094c-1.121-0.345-1.75-1.533-1.406-2.653
					c0.865-2.813,2.045-5.536,3.506-8.094c4.531-7.925,11.727-14.094,20.262-17.371c1.09-0.421,2.322,0.125,2.743,1.221
					c0.421,1.095-0.127,2.323-1.222,2.743c-7.623,2.928-14.05,8.437-18.096,15.514c-1.306,2.286-2.361,4.72-3.133,7.234
					C35.686,78.232,34.845,78.819,33.938,78.819z"/>
			</g>
		</g>
		<g>
			<g>
				<g>
					<path d="M149.571,84.784c-0.118,0-0.239-0.01-0.359-0.031c-1.156-0.197-1.934-1.293-1.737-2.449
						c0.248-1.458,0.335-2.947,0.257-4.426c-0.24-4.575-2.071-8.967-5.157-12.366c-0.788-0.868-0.724-2.211,0.145-2.999
						c0.868-0.788,2.211-0.723,2.999,0.145c3.741,4.122,5.963,9.448,6.253,14.998c0.094,1.791-0.011,3.595-0.311,5.361
						C151.486,84.052,150.587,84.784,149.571,84.784z"/>
				</g>
			</g>
			<g>
				<g>
					<path d="M160.005,88.819c-0.118,0-0.238-0.01-0.359-0.03c-1.156-0.197-1.934-1.293-1.737-2.449
						c0.442-2.598,0.596-5.246,0.458-7.871c-0.426-8.14-3.685-15.953-9.175-22c-0.788-0.868-0.724-2.211,0.145-2.999
						c0.868-0.789,2.211-0.723,3,0.145c6.146,6.77,9.794,15.518,10.272,24.633c0.154,2.937-0.018,5.9-0.512,8.805
						C161.92,88.087,161.022,88.819,160.005,88.819z"/>
				</g>
			</g>
		</g>
		<g>
			<g>
				<path d="M87.869,154.246c-0.118,0-0.239-0.013-0.358-0.038c-0.918-0.197-1.501-1.1-1.305-2.018
					c2.675-12.458,0.019-25.334-6.767-32.805c-0.631-0.695-0.58-1.769,0.115-2.4c0.696-0.631,1.77-0.578,2.399,0.115
					c7.499,8.255,10.472,22.309,7.575,35.803C89.358,153.7,88.653,154.246,87.869,154.246z"/>
			</g>
		</g>
		<g>
			<g>
				<path d="M131.909,70.01c-1.607-0.447-3.236-0.394-4.722,0.066l2.019-7.255c1.242-4.465-1.379-9.109-5.844-10.351
					c-1.607-0.447-3.236-0.394-4.722,0.066l0.341-1.224c1.242-4.465-1.379-9.109-5.844-10.351
					c-4.465-1.242-9.109,1.379-10.351,5.844l-0.061,0.219c-1.035-1.161-2.403-2.048-4.01-2.495
					c-4.465-1.242-9.109,1.379-10.351,5.844L74.675,99.565l-0.481,1.729c-4.202-7.402-2.637-13.691-2.552-14.013
					c1.616-5.807-1.093-11.118-6.447-12.607c-4.049-1.127-9.102,0.283-11.186,7.595c-0.741,2.141-4.917,31.26,13.079,64.602
					c0.86-0.768,1.77-1.475,2.723-2.117c-17.809-33.317-12.563-61.454-12.563-61.454c1.043-3.747,3.289-6.395,7.036-5.352
					c3.747,1.043,5.121,4.698,4.078,8.445c0,0-3.185,11.398,7.257,22.453l2.328-8.369l0,0l13.688-49.193
					c0.741-2.665,3.502-4.224,6.167-3.482c2.665,0.741,4.224,3.503,3.482,6.167l-13.688,49.193l0,0l2.814,0.783l0,0l15.646-56.229
					c0.741-2.665,3.502-4.224,6.167-3.482c2.665,0.741,4.224,3.503,3.482,6.167l-15.646,56.229l0,0l2.814,0.783l0,0l13.409-48.188
					c0.741-2.665,3.502-4.224,6.167-3.482c2.665,0.741,4.224,3.503,3.482,6.167l-13.409,48.188l0,0l2.814,0.783l0,0l9.493-34.115
					c0.741-2.665,3.502-4.224,6.167-3.482s4.224,3.503,3.482,6.167l-9.493,34.115l0,0l-3.951,14.2l-0.228,0.818
					c-2.363,8.493-10.133,23.452-17.158,27.623c0.385,1.098,0.695,2.225,0.926,3.373c8.351-4.691,16.905-20.741,19.505-30.086
					l0.228-0.818l3.951-14.2l9.493-34.115C138.996,75.896,136.375,71.253,131.909,70.01z"/>
			</g>
		</g>
	</g>
</g>
</svg>
