<?xml version="1.0" encoding="utf-8"?>
<!-- Generator: Adobe Illustrator 17.0.0, SVG Export Plug-In . SVG Version: 6.00 Build 0)  -->
<!DOCTYPE svg PUBLIC "-//W3C//DTD SVG 1.1//EN" "http://www.w3.org/Graphics/SVG/1.1/DTD/svg11.dtd">
<svg version="1.1" id="图层_1" xmlns="http://www.w3.org/2000/svg" xmlns:xlink="http://www.w3.org/1999/xlink" x="0px" y="0px"
	 width="195.199px" height="195.199px" viewBox="0 0 195.199 195.199" enable-background="new 0 0 195.199 195.199"
	 xml:space="preserve">
<g>
	<g>
		<g>
			<g>
				<path d="M97.238,195.896c-53.817,0-97.599-43.783-97.599-97.599s43.783-97.6,97.599-97.6s97.599,43.783,97.599,97.6
					S151.054,195.896,97.238,195.896z M97.238,4.516c-51.71,0-93.78,42.07-93.78,93.78s42.07,93.78,93.78,93.78
					s93.78-42.069,93.78-93.78S148.948,4.516,97.238,4.516z"/>
			</g>
		</g>
	</g>
	<g>
		<g>
			<g>
				<path d="M126.532,140.045H70.854c-13.95,0-25.298-11.349-25.298-25.299h3.82c0,11.843,9.636,21.479,21.479,21.479h55.678
					c11.843,0,21.479-9.636,21.479-21.479V83.088c0-11.843-9.636-21.479-21.479-21.479h-63.27v-3.82h63.27
					c13.95,0,25.298,11.349,25.298,25.298v31.658C151.83,128.696,140.482,140.045,126.532,140.045z"/>
			</g>
		</g>
		<g>
			<g>
				<g>
					<polygon points="67.498,74.173 42.432,59.701 67.498,45.226 					"/>
				</g>
			</g>
		</g>
	</g>
	<g>
		<g>
			<path d="M88.332,107.555c0,0,4.457,4.342,10.247,4.342c3.126,0,5.963-1.621,5.963-4.979c0-6.946-19.567-6.252-19.567-18.698
				c0-5.963,4.457-10.593,10.883-11.636v-5.441h4.979v5.326c6.715,0.579,10.189,4.226,10.189,4.226l-3.242,6.078
				c0,0-3.936-3.589-9.088-3.589c-3.474,0-6.194,2.026-6.194,4.921c0,6.889,19.508,5.673,19.508,18.64
				c0,5.905-4.111,10.941-11.173,11.867v5.326h-4.979v-5.326c-7.468-0.868-11.577-5.441-11.577-5.441L88.332,107.555z"/>
		</g>
	</g>
	<g>
		<g>
			<path d="M3.719,83.974c0,0,0.289-0.039,0.831-0.112c0.305-0.022,0.806-0.017,1.337-0.016c0.48,0.01,1.04,0.012,1.63,0.076
				c1.202,0.102,2.622,0.271,4.157,0.607c1.54,0.322,3.211,0.769,4.952,1.323c1.74,0.551,3.558,1.199,5.406,1.912
				c1.855,0.703,3.733,1.463,5.606,2.208c1.869,0.724,3.728,1.453,5.454,1.977c0.851,0.27,1.667,0.488,2.383,0.623
				c0.367,0.069,0.671,0.117,0.985,0.163l0.842,0.109l0.68,0.072c1.881,0.185,3.89,0.332,5.819,0.375
				c1.941,0.049,3.854,0.04,5.684-0.057c1.834-0.074,3.585-0.233,5.215-0.444c1.632-0.203,3.149-0.463,4.505-0.774
				c2.726-0.606,4.833-1.384,6.281-2.028c0.706-0.341,1.284-0.608,1.654-0.82c0.372-0.21,0.59-0.315,0.59-0.315l0.708-0.34
				c2.131-1.025,4.689-0.128,5.714,2.002c0.614,1.277,0.526,2.73-0.092,3.892c0,0-0.167,0.31-0.519,0.877
				c-0.359,0.558-0.894,1.385-1.707,2.318c-0.804,0.935-1.845,2.033-3.165,3.106c-1.317,1.072-2.892,2.141-4.679,3.118
				c-1.79,0.973-3.79,1.836-5.937,2.566c-1.077,0.361-2.187,0.676-3.327,0.976c-1.143,0.272-2.314,0.523-3.506,0.732
				c-2.389,0.398-4.865,0.65-7.384,0.705c-1.26,0.048-2.53,0.015-3.806-0.043c-1.288-0.05-2.532-0.151-3.869-0.32l-1.007-0.13
				l-0.84-0.125c-0.804-0.126-1.615-0.273-2.345-0.467c-1.482-0.377-2.814-0.832-4.065-1.308c-2.47-0.992-4.617-2.072-6.584-3.168
				c-1.96-1.086-3.751-2.172-5.383-3.2c-1.591-1.01-3.094-1.964-4.482-2.846c-1.351-0.857-2.557-1.61-3.609-2.24
				c-1.055-0.62-1.942-1.154-2.668-1.515c-0.367-0.192-0.681-0.337-0.954-0.49c-0.23-0.118-0.374-0.228-0.595-0.317
				c-0.514-0.185-0.789-0.284-0.789-0.284l-0.006-0.002c-2.252-0.81-3.421-3.293-2.611-5.545C0.787,85.23,2.172,84.186,3.719,83.974
				z"/>
		</g>
	</g>
	<g>
		<g>
			<path d="M28.441,89.367c0,0,0.307-0.233,0.843-0.64c0.134-0.102,0.283-0.214,0.444-0.337c0.191-0.137,0.397-0.286,0.618-0.444
				c0.443-0.317,0.945-0.682,1.481-1.021c0.534-0.357,1.123-0.729,1.765-1.099c0.627-0.388,1.329-0.743,2.037-1.129
				c0.731-0.352,1.472-0.735,2.261-1.058c0.775-0.349,1.588-0.642,2.393-0.945c0.818-0.268,1.631-0.546,2.447-0.758
				c0.808-0.24,1.617-0.404,2.393-0.585c0.781-0.143,1.532-0.303,2.248-0.394c0.715-0.113,1.389-0.193,2.011-0.252
				c1.243-0.126,2.275-0.189,2.993-0.208c0.718-0.023,1.128-0.037,1.128-0.037c1.785-0.059,3.28,1.342,3.339,3.127
				c0.054,1.661-1.154,3.071-2.76,3.306l-0.131,0.019c0,0-0.355,0.052-0.977,0.144c-0.622,0.086-1.502,0.242-2.537,0.468
				c-0.519,0.109-1.075,0.24-1.653,0.401c-0.585,0.141-1.18,0.346-1.802,0.531c-0.609,0.22-1.245,0.422-1.864,0.689
				c-0.629,0.24-1.243,0.537-1.861,0.817c-0.603,0.314-1.211,0.609-1.783,0.953c-0.584,0.317-1.128,0.689-1.664,1.023
				c-0.519,0.37-1.032,0.7-1.491,1.066c-0.469,0.346-0.9,0.693-1.291,1.026c-0.408,0.325-0.726,0.625-1.019,0.888
				c-0.147,0.132-0.285,0.255-0.412,0.369c-0.147,0.14-0.282,0.269-0.404,0.385c-0.488,0.465-0.766,0.731-0.766,0.731
				c-1.85,1.764-4.779,1.694-6.542-0.156c-1.764-1.85-1.694-4.779,0.156-6.542C28.169,89.586,28.305,89.47,28.441,89.367z"/>
		</g>
	</g>
</g>
</svg>
