<?xml version="1.0" encoding="utf-8"?>
<!-- Generator: Adobe Illustrator 17.0.0, SVG Export Plug-In . SVG Version: 6.00 Build 0)  -->
<!DOCTYPE svg PUBLIC "-//W3C//DTD SVG 1.1//EN" "http://www.w3.org/Graphics/SVG/1.1/DTD/svg11.dtd">
<svg version="1.1" id="图层_1" xmlns="http://www.w3.org/2000/svg" xmlns:xlink="http://www.w3.org/1999/xlink" x="0px" y="0px"
	 width="195.199px" height="195.199px" viewBox="0 0 195.199 195.199" enable-background="new 0 0 195.199 195.199"
	 xml:space="preserve">
<g>
	<g>
		<g>
			<path d="M97.408,195.415c-53.817,0-97.6-43.783-97.6-97.599s43.784-97.6,97.6-97.6s97.599,43.783,97.599,97.6
				S151.224,195.415,97.408,195.415z M97.408,4.035c-51.711,0-93.781,42.07-93.781,93.78s42.07,93.78,93.781,93.78
				c51.71,0,93.78-42.069,93.78-93.78S149.118,4.035,97.408,4.035z"/>
		</g>
	</g>
	<g>
		<g>
			<g>
				<path d="M123.169,160.054H71.647c-11.315,0-20.521-9.206-20.521-20.521V56.098c0-11.315,9.206-20.521,20.521-20.521h51.522
					c11.314,0,20.52,9.205,20.52,20.521v83.435C143.689,150.848,134.483,160.054,123.169,160.054z M71.647,40.004
					c-8.874,0-16.094,7.22-16.094,16.094v83.435c0,8.874,7.22,16.094,16.094,16.094h51.522c8.874,0,16.093-7.22,16.093-16.094
					V56.098c0-8.874-7.219-16.094-16.093-16.094H71.647z"/>
			</g>
		</g>
		<g>
			<polygon points="82.358,74.776 97.784,48.058 113.209,74.776 			"/>
			<polygon points="78.217,88.611 97.784,54.72 117.35,88.611 			"/>
			<polygon points="70.6,107.455 97.784,60.372 124.967,107.455 			"/>
			<polygon points="62.984,129.3 97.784,69.024 132.584,129.3 			"/>
			<rect x="94.187" y="127.795" width="7.194" height="29.198"/>
		</g>
	</g>
</g>
</svg>
