<?xml version="1.0" encoding="utf-8"?>
<!-- Generator: Adobe Illustrator 17.0.0, SVG Export Plug-In . SVG Version: 6.00 Build 0)  -->
<!DOCTYPE svg PUBLIC "-//W3C//DTD SVG 1.1//EN" "http://www.w3.org/Graphics/SVG/1.1/DTD/svg11.dtd">
<svg version="1.1" id="图层_1" xmlns="http://www.w3.org/2000/svg" xmlns:xlink="http://www.w3.org/1999/xlink" x="0px" y="0px"
	 width="195.199px" height="195.199px" viewBox="0 0 195.199 195.199" enable-background="new 0 0 195.199 195.199"
	 xml:space="preserve">
<g>
	<g>
		<g>
			<path d="M97.108,195.458c-53.817,0-97.599-43.783-97.599-97.599s43.783-97.6,97.599-97.6s97.599,43.783,97.599,97.6
				S150.925,195.458,97.108,195.458z M97.108,4.078c-51.71,0-93.78,42.07-93.78,93.78s42.07,93.78,93.78,93.78
				s93.78-42.069,93.78-93.78S148.818,4.078,97.108,4.078z"/>
		</g>
	</g>
	<g>
		<path d="M155.999,140.606h-117.2c-11.16,0-20.239-9.079-20.239-20.239V75.35c0-11.16,9.079-20.24,20.239-20.24h117.2
			c11.16,0,20.239,9.08,20.239,20.24v45.017C176.239,131.527,167.16,140.606,155.999,140.606z M38.799,59.11
			c-8.954,0-16.239,7.285-16.239,16.24v45.017c0,8.955,7.285,16.239,16.239,16.239h117.2c8.954,0,16.239-7.285,16.239-16.239V75.35
			c0-8.955-7.285-16.24-16.239-16.24H38.799z"/>
	</g>
	<g>
		<path d="M65.727,112.307H46.204V76.002h18.703v4.172H50.891v11.625h12.984v4.148H50.891v12.211h14.836V112.307z"/>
		<path d="M101.16,112.307h-5.695l-8.109-13.664c-0.188-0.313-0.461-0.938-0.82-1.875h-0.117c-0.031,0.125-0.313,0.758-0.844,1.898
			l-8.344,13.641h-5.719l12.07-18.234l-11.109-18.07h5.742l7.172,12.563c0.422,0.734,0.844,1.594,1.266,2.578h0.094
			c0.375-0.844,0.836-1.742,1.383-2.695l7.5-12.445h5.367l-11.344,18L101.16,112.307z"/>
		<path d="M117.514,79.963h-3.492v28.383h3.492v3.961h-11.672v-3.961h3.492V79.963h-3.492v-3.961h11.672V79.963z"/>
		<path d="M148.164,80.174h-10.477v32.133h-4.711V80.174h-10.43v-4.172h25.617V80.174z"/>
	</g>
</g>
</svg>
