<?xml version="1.0" encoding="utf-8"?>
<!-- Generator: Adobe Illustrator 17.0.0, SVG Export Plug-In . SVG Version: 6.00 Build 0)  -->
<!DOCTYPE svg PUBLIC "-//W3C//DTD SVG 1.1//EN" "http://www.w3.org/Graphics/SVG/1.1/DTD/svg11.dtd">
<svg version="1.1" id="图层_1" xmlns="http://www.w3.org/2000/svg" xmlns:xlink="http://www.w3.org/1999/xlink" x="0px" y="0px"
	 width="195.199px" height="195.199px" viewBox="0 0 195.199 195.199" enable-background="new 0 0 195.199 195.199"
	 xml:space="preserve">
<g>
	<g>
		<g>
			<g>
				<path d="M97.108,195.612c-53.817,0-97.599-43.783-97.599-97.599s43.783-97.6,97.599-97.6s97.599,43.783,97.599,97.6
					S150.925,195.612,97.108,195.612z M97.108,4.232c-51.71,0-93.78,42.07-93.78,93.78s42.07,93.78,93.78,93.78
					s93.78-42.069,93.78-93.78S148.818,4.232,97.108,4.232z"/>
			</g>
		</g>
	</g>
	<g>
		<g>
			<path d="M80.328,110.89H57.974c-7.067,0-12.817-5.749-12.817-12.817V57.22c0-7.067,5.75-12.817,12.817-12.817h22.354
				c7.067,0,12.817,5.749,12.817,12.817v40.854C93.145,105.14,87.395,110.89,80.328,110.89z M57.974,47.268
				c-5.488,0-9.952,4.464-9.952,9.952v40.854c0,5.487,4.464,9.952,9.952,9.952h22.354c5.488,0,9.952-4.464,9.952-9.952V57.22
				c0-5.487-4.464-9.952-9.952-9.952H57.974z"/>
		</g>
	</g>
	<g>
		<g>
			<path d="M136.533,110.89h-22.354c-7.067,0-12.817-5.749-12.817-12.817V57.22c0-7.067,5.75-12.817,12.817-12.817h22.354
				c7.067,0,12.817,5.749,12.817,12.817v40.854C149.35,105.14,143.6,110.89,136.533,110.89z M114.179,47.268
				c-5.488,0-9.952,4.464-9.952,9.952v40.854c0,5.487,4.464,9.952,9.952,9.952h22.354c5.488,0,9.952-4.464,9.952-9.952V57.22
				c0-5.487-4.464-9.952-9.952-9.952H114.179z"/>
		</g>
	</g>
	<g>
		<g>
			<g>
				<path d="M56.476,129.835c4.223,0,7-2.024,7.861-4.797h42.227c1.055,0,1.91-0.855,1.91-1.91s-0.855-1.91-1.91-1.91H64.337
					c-0.861-2.773-3.638-4.797-7.861-4.797c-5.145,0-9.316,3.003-9.316,6.707C47.16,126.832,51.331,129.835,56.476,129.835z"/>
			</g>
		</g>
		<g>
			<g>
				<path d="M54.37,143.806h-7.21v1.076l12.619,0.583c1.995,0,3.705-1.208,4.447-2.931h42.338c1.055,0,1.91-0.855,1.91-1.91
					c0-1.055-0.855-1.91-1.91-1.91H64.226c-0.741-1.723-2.452-2.931-4.447-2.931l-12.619,0.583v1.113h7.21
					c0.161,0,0.292,0.651,0.292,0.812s-0.13,0.68-0.292,0.68h-7.21v0.985h7.21c0.161,0,0.292,0.507,0.292,0.668
					c0,0.161-0.13,0.705-0.292,0.705h-7.21v0.955h7.21c0.161,0,0.292,0.512,0.292,0.673
					C54.661,143.118,54.531,143.806,54.37,143.806z"/>
			</g>
		</g>
	</g>
	<g>
		<g>
			<path d="M135.089,102.112c-17.968,0-32.533,14.566-32.533,32.533c0,17.968,14.565,32.533,32.533,32.533
				s32.533-14.566,32.533-32.533C167.622,116.678,153.056,102.112,135.089,102.112z M151.578,144.384
				c1.865,1.865,1.865,4.888,0,6.752c-0.932,0.932-2.154,1.398-3.376,1.398s-2.444-0.466-3.376-1.398l-9.738-9.738l-9.738,9.738
				c-0.932,0.932-2.154,1.398-3.376,1.398s-2.444-0.466-3.376-1.398c-1.865-1.865-1.865-4.888,0-6.752l9.738-9.738l-9.738-9.738
				c-1.865-1.865-1.865-4.888,0-6.752c1.863-1.864,4.888-1.864,6.751,0l9.738,9.738l9.738-9.738c1.863-1.864,4.888-1.864,6.751,0
				c1.865,1.865,1.865,4.888,0,6.752l-9.738,9.738L151.578,144.384z"/>
		</g>
	</g>
	<g>
		<g>
			<path d="M136.568,35.482c11.122,0,20.221,9.1,20.221,20.221v78.92l-1.964,19.09l-18.257,1.131H57.648
				c-11.122,0-20.222-9.1-20.222-20.222v-78.92c0-11.122,9.1-20.221,20.222-20.221H136.568 M155.303,156.578l4.351-21.955v-78.92
				c0-12.73-10.356-23.086-23.086-23.086l0,0H57.648c-12.73,0-23.086,10.356-23.086,23.086v78.92
				c0,12.73,10.356,23.086,23.086,23.086h78.919L155.303,156.578z"/>
		</g>
	</g>
</g>
</svg>
