<?xml version="1.0" encoding="utf-8"?>
<!-- Generator: Adobe Illustrator 17.0.0, SVG Export Plug-In . SVG Version: 6.00 Build 0)  -->
<!DOCTYPE svg PUBLIC "-//W3C//DTD SVG 1.1//EN" "http://www.w3.org/Graphics/SVG/1.1/DTD/svg11.dtd">
<svg version="1.1" id="图层_1" xmlns="http://www.w3.org/2000/svg" xmlns:xlink="http://www.w3.org/1999/xlink" x="0px" y="0px"
	 width="195.199px" height="195.199px" viewBox="0 0 195.199 195.199" enable-background="new 0 0 195.199 195.199"
	 xml:space="preserve">
<g>
	<g>
		<g>
			<g>
				<path d="M97.108,195.234c-53.817,0-97.599-43.783-97.599-97.599s43.783-97.6,97.599-97.6s97.599,43.783,97.599,97.6
					S150.925,195.234,97.108,195.234z M97.108,3.855c-51.71,0-93.78,42.07-93.78,93.78s42.07,93.78,93.78,93.78
					s93.78-42.069,93.78-93.78S148.818,3.855,97.108,3.855z"/>
			</g>
		</g>
	</g>
	<g>
		<g>
			<path d="M66.889,65.912c-7.047,0-12.78-5.733-12.78-12.78s5.733-12.78,12.78-12.78s12.779,5.733,12.779,12.78
				S73.936,65.912,66.889,65.912z M66.889,44.352c-4.842,0-8.78,3.938-8.78,8.78s3.938,8.78,8.78,8.78
				c4.841,0,8.779-3.938,8.779-8.78S71.73,44.352,66.889,44.352z"/>
		</g>
		<g>
			<path d="M55.4,172.258c-0.847,0-1.696-0.1-2.534-0.309c-2.674-0.669-4.834-2.329-6.081-4.673
				c-1.246-2.345-1.415-5.063-0.474-7.654l15.049-41.435V72.58c0-6.619,5.385-12.004,12.004-12.004h1.088
				c6.619,0,12.004,5.385,12.004,12.004v43.764l21.671,36.548c2.838,4.788,1.509,10.878-3.027,13.865
				c-2.348,1.547-5.147,2.053-7.881,1.421c-2.734-0.63-5.028-2.307-6.46-4.72l-15.016-25.327l-9.747,26.836
				C64.406,169.345,59.965,172.258,55.4,172.258z M65.36,116.409h0.854l-0.928,2.683l-15.216,41.895
				c-0.55,1.513-0.462,3.08,0.246,4.411c0.708,1.332,1.958,2.28,3.52,2.67c3.369,0.84,7.215-1.204,8.399-4.466l12.634-34.785
				l19.33,32.602c0.867,1.463,2.259,2.48,3.917,2.863c1.655,0.381,3.356,0.076,4.783-0.864c2.702-1.78,3.504-5.585,1.785-8.484
				l-22.229-37.492V72.58c0-4.414-3.591-8.004-8.004-8.004h-1.088c-4.413,0-8.004,3.591-8.004,8.004V116.409z"/>
		</g>
		<g>
			<path d="M129.722,171.523h-20.11c-3.919,0-7.678-1.2-10.87-3.47l-4.71-3.35l5.772-0.278c1.104-0.053,2.174-0.402,3.096-1.009
				c2.702-1.78,3.504-5.585,1.785-8.484l-13.854-23.365V41.789c0-10.355,8.425-18.78,18.78-18.78h20.11
				c10.355,0,18.78,8.425,18.78,18.78v110.954C148.502,163.099,140.077,171.523,129.722,171.523z M105.034,166.8
				c1.465,0.478,3.004,0.723,4.577,0.723h20.11c8.149,0,14.78-6.63,14.78-14.78V41.789c0-8.15-6.631-14.78-14.78-14.78h-20.11
				c-8.149,0-14.78,6.63-14.78,14.78v88.682l13.295,22.422c2.838,4.788,1.509,10.878-3.027,13.865
				C105.077,166.772,105.056,166.786,105.034,166.8z"/>
		</g>
	</g>
</g>
</svg>
